M48
; DRILL file {KiCad 7.0.10-148-g62bb553460} date Sun Feb  4 12:14:05 2024
; FORMAT={-:-/ absolute / inch / decimal}
; #@! TF.CreationDate,2024-02-04T12:14:05+03:00
; #@! TF.GenerationSoftware,Kicad,Pcbnew,7.0.10-148-g62bb553460
; #@! TF.FileFunction,Plated,1,2,PTH
FMAT,2
INCH
; #@! TA.AperFunction,Plated,PTH,ViaDrill
T1C0.0157
; #@! TA.AperFunction,Plated,PTH,ComponentDrill
T2C0.0315
; #@! TA.AperFunction,Plated,PTH,ComponentDrill
T3C0.0394
%
G90
G05
T1
X2.1496Y-4.7441
X2.325Y-4.8543
X2.325Y-5.0945
X2.327Y-5.372
X2.3947Y-4.9144
X2.3957Y-5.1516
X2.6654Y-4.8601
X2.7047Y-4.8583
X2.7441Y-4.8583
X2.7915Y-5.1494
X2.8228Y-5.1772
X2.878Y-5.1535
X2.9526Y-5.5244
X3.0526Y-5.5244
X3.0689Y-4.5571
X3.2165Y-5.0512
X3.2789Y-5.1411
X3.3268Y-5.5276
X3.8307Y-5.2165
X3.9685Y-5.2165
X4.1772Y-5.4843
X4.5354Y-5.3268
X4.5354Y-5.4409
X4.5811Y-5.4843
X5.1969Y-4.622
X5.1969Y-4.752
X5.1969Y-4.8937
X5.2441Y-5.0197
T2
X2.0197Y-4.8583
X2.0197Y-4.9409
X2.0197Y-5.0433
X2.0197Y-5.126
X2.1299Y-4.8583
X2.1299Y-5.126
X4.0713Y-4.6248
X4.0713Y-4.7248
X4.0713Y-4.8248
X4.0713Y-4.9248
X4.0713Y-5.0248
X4.0713Y-5.1248
X4.1713Y-4.5248
X4.1713Y-4.6248
X4.1713Y-4.7248
X4.1713Y-4.8248
X4.1713Y-4.9248
X4.1713Y-5.0248
X4.1713Y-5.1248
X4.1713Y-5.2248
X4.2713Y-4.5248
X4.2713Y-4.6248
X4.2713Y-5.1248
X4.2713Y-5.2248
X4.3713Y-4.5248
X4.3713Y-4.6248
X4.3713Y-5.1248
X4.3713Y-5.2248
X4.4713Y-4.5248
X4.4713Y-4.6248
X4.4713Y-5.1248
X4.4713Y-5.2248
X4.5713Y-4.5248
X4.5713Y-4.6248
X4.5713Y-5.1248
X4.5713Y-5.2248
X4.6713Y-4.5248
X4.6713Y-4.6248
X4.6713Y-4.7248
X4.6713Y-4.8248
X4.6713Y-4.9248
X4.6713Y-5.0248
X4.6713Y-5.1248
X4.6713Y-5.2248
X4.7713Y-4.6248
X4.7713Y-4.7248
X4.7713Y-4.8248
X4.7713Y-4.9248
X4.7713Y-5.0248
X4.7713Y-5.1248
T3
X1.9969Y-4.4449
X2.0969Y-4.4449
X2.1969Y-4.4449
X2.2969Y-4.4449
X2.5207Y-4.5683
X2.5207Y-4.6683
X2.6207Y-4.5683
X2.6207Y-4.6683
X2.7207Y-4.5683
X2.7207Y-4.6683
X5.3173Y-4.6165
X5.3173Y-4.7165
X5.3173Y-4.8165
X5.3173Y-4.9165
X5.3173Y-5.0165
X5.4173Y-4.6165
X5.4173Y-4.7165
X5.4173Y-4.8165
X5.4173Y-4.9165
X5.4173Y-5.0165
T3
G00X1.876Y-4.9528
M15
G01X1.876Y-5.0315
M16
G05
G00X1.937Y-4.7224
M15
G01X1.878Y-4.7224
M16
G05
G00X1.937Y-5.2618
M15
G01X1.878Y-5.2618
M16
G05
M30
