G04 #@! TF.GenerationSoftware,KiCad,Pcbnew,7.0.10-148-g62bb553460*
G04 #@! TF.CreationDate,2024-02-04T12:13:55+03:00*
G04 #@! TF.ProjectId,ZX_BUS_Mouse,5a585f42-5553-45f4-9d6f-7573652e6b69,rev?*
G04 #@! TF.SameCoordinates,Original*
G04 #@! TF.FileFunction,Copper,L2,Bot*
G04 #@! TF.FilePolarity,Positive*
%FSLAX46Y46*%
G04 Gerber Fmt 4.6, Leading zero omitted, Abs format (unit mm)*
G04 Created by KiCad (PCBNEW 7.0.10-148-g62bb553460) date 2024-02-04 12:13:55*
%MOMM*%
%LPD*%
G01*
G04 APERTURE LIST*
G04 Aperture macros list*
%AMRoundRect*
0 Rectangle with rounded corners*
0 $1 Rounding radius*
0 $2 $3 $4 $5 $6 $7 $8 $9 X,Y pos of 4 corners*
0 Add a 4 corners polygon primitive as box body*
4,1,4,$2,$3,$4,$5,$6,$7,$8,$9,$2,$3,0*
0 Add four circle primitives for the rounded corners*
1,1,$1+$1,$2,$3*
1,1,$1+$1,$4,$5*
1,1,$1+$1,$6,$7*
1,1,$1+$1,$8,$9*
0 Add four rect primitives between the rounded corners*
20,1,$1+$1,$2,$3,$4,$5,0*
20,1,$1+$1,$4,$5,$6,$7,0*
20,1,$1+$1,$6,$7,$8,$9,0*
20,1,$1+$1,$8,$9,$2,$3,0*%
G04 Aperture macros list end*
G04 #@! TA.AperFunction,ComponentPad*
%ADD10R,1.600000X1.600000*%
G04 #@! TD*
G04 #@! TA.AperFunction,ComponentPad*
%ADD11C,1.600000*%
G04 #@! TD*
G04 #@! TA.AperFunction,ComponentPad*
%ADD12O,3.500000X2.000000*%
G04 #@! TD*
G04 #@! TA.AperFunction,ComponentPad*
%ADD13O,2.000000X4.000000*%
G04 #@! TD*
G04 #@! TA.AperFunction,ComponentPad*
%ADD14R,1.700000X1.700000*%
G04 #@! TD*
G04 #@! TA.AperFunction,ComponentPad*
%ADD15O,1.700000X1.700000*%
G04 #@! TD*
G04 #@! TA.AperFunction,ComponentPad*
%ADD16R,1.422400X1.422400*%
G04 #@! TD*
G04 #@! TA.AperFunction,ComponentPad*
%ADD17C,1.422400*%
G04 #@! TD*
G04 #@! TA.AperFunction,ComponentPad*
%ADD18RoundRect,0.250000X-0.600000X-0.600000X0.600000X-0.600000X0.600000X0.600000X-0.600000X0.600000X0*%
G04 #@! TD*
G04 #@! TA.AperFunction,ComponentPad*
%ADD19C,1.700000*%
G04 #@! TD*
G04 #@! TA.AperFunction,SMDPad,CuDef*
%ADD20RoundRect,0.250000X-0.412500X-0.650000X0.412500X-0.650000X0.412500X0.650000X-0.412500X0.650000X0*%
G04 #@! TD*
G04 #@! TA.AperFunction,SMDPad,CuDef*
%ADD21R,1.500000X2.000000*%
G04 #@! TD*
G04 #@! TA.AperFunction,SMDPad,CuDef*
%ADD22R,3.800000X2.000000*%
G04 #@! TD*
G04 #@! TA.AperFunction,SMDPad,CuDef*
%ADD23RoundRect,0.250000X-0.925000X0.875000X-0.925000X-0.875000X0.925000X-0.875000X0.925000X0.875000X0*%
G04 #@! TD*
G04 #@! TA.AperFunction,SMDPad,CuDef*
%ADD24RoundRect,0.250000X-0.650000X0.412500X-0.650000X-0.412500X0.650000X-0.412500X0.650000X0.412500X0*%
G04 #@! TD*
G04 #@! TA.AperFunction,SMDPad,CuDef*
%ADD25RoundRect,0.250000X0.650000X-0.412500X0.650000X0.412500X-0.650000X0.412500X-0.650000X-0.412500X0*%
G04 #@! TD*
G04 #@! TA.AperFunction,SMDPad,CuDef*
%ADD26RoundRect,0.425000X-0.425000X3.575000X-0.425000X-3.575000X0.425000X-3.575000X0.425000X3.575000X0*%
G04 #@! TD*
G04 #@! TA.AperFunction,ViaPad*
%ADD27C,0.800000*%
G04 #@! TD*
G04 #@! TA.AperFunction,Conductor*
%ADD28C,1.000000*%
G04 #@! TD*
G04 #@! TA.AperFunction,Conductor*
%ADD29C,0.600000*%
G04 #@! TD*
G04 #@! TA.AperFunction,Conductor*
%ADD30C,0.200000*%
G04 #@! TD*
G04 APERTURE END LIST*
D10*
X51300000Y-128100000D03*
D11*
X51300000Y-125500000D03*
X51300000Y-130200000D03*
X51300000Y-123400000D03*
X54100000Y-130200000D03*
X54100000Y-123400000D03*
D12*
X48450000Y-119950000D03*
D13*
X47650000Y-126800000D03*
D12*
X48450000Y-133650000D03*
D14*
X58340000Y-112900000D03*
D15*
X55800000Y-112900000D03*
X53260000Y-112900000D03*
X50720000Y-112900000D03*
D16*
X113570000Y-117468750D03*
D17*
X111030000Y-114928750D03*
X111030000Y-117468750D03*
X108490000Y-114928750D03*
X108490000Y-117468750D03*
X105950000Y-114928750D03*
X103410000Y-117468750D03*
X105950000Y-117468750D03*
X103410000Y-120008750D03*
X105950000Y-120008750D03*
X103410000Y-122548750D03*
X105950000Y-122548750D03*
X103410000Y-125088750D03*
X105950000Y-125088750D03*
X103410000Y-127628750D03*
X105950000Y-127628750D03*
X103410000Y-130168750D03*
X105950000Y-132708750D03*
X105950000Y-130168750D03*
X108490000Y-132708750D03*
X108490000Y-130168750D03*
X111030000Y-132708750D03*
X111030000Y-130168750D03*
X113570000Y-132708750D03*
X113570000Y-130168750D03*
X116110000Y-132708750D03*
X116110000Y-130168750D03*
X118650000Y-132708750D03*
X121190000Y-130168750D03*
X118650000Y-130168750D03*
X121190000Y-127628750D03*
X118650000Y-127628750D03*
X121190000Y-125088750D03*
X118650000Y-125088750D03*
X121190000Y-122548750D03*
X118650000Y-122548750D03*
X121190000Y-120008750D03*
X118650000Y-120008750D03*
X121190000Y-117468750D03*
X118650000Y-114928750D03*
X118650000Y-117468750D03*
X116110000Y-114928750D03*
X116110000Y-117468750D03*
X113570000Y-114928750D03*
D14*
X64025000Y-118575000D03*
D15*
X64025000Y-116035000D03*
X66565000Y-118575000D03*
X66565000Y-116035000D03*
X69105000Y-118575000D03*
X69105000Y-116035000D03*
D18*
X135060000Y-117258750D03*
D19*
X137600000Y-117258750D03*
X135060000Y-119798750D03*
X137600000Y-119798750D03*
X135060000Y-122338750D03*
X137600000Y-122338750D03*
X135060000Y-124878750D03*
X137600000Y-124878750D03*
X135060000Y-127418750D03*
X137600000Y-127418750D03*
D20*
X109337500Y-135318750D03*
X112462500Y-135318750D03*
D21*
X92800000Y-118768750D03*
X90500000Y-118768750D03*
D22*
X90500000Y-112468750D03*
D21*
X88200000Y-118768750D03*
D23*
X83800000Y-113550000D03*
X83800000Y-118650000D03*
D24*
X100800000Y-127356250D03*
X100800000Y-130481250D03*
D23*
X97300000Y-113468750D03*
X97300000Y-118568750D03*
D25*
X123800000Y-124181250D03*
X123800000Y-121056250D03*
D20*
X112637500Y-112318750D03*
X115762500Y-112318750D03*
D26*
X53975000Y-145034000D03*
X56515000Y-145034000D03*
X59055000Y-145034000D03*
X61595000Y-145034000D03*
X64135000Y-145034000D03*
X66675000Y-145034000D03*
X69215000Y-145034000D03*
X71755000Y-145034000D03*
X74295000Y-145034000D03*
X76835000Y-145034000D03*
X79375000Y-145034000D03*
X81915000Y-145034000D03*
X84455000Y-145034000D03*
X86995000Y-145034000D03*
X89535000Y-145034000D03*
X92075000Y-145034000D03*
X94615000Y-145034000D03*
X97155000Y-145034000D03*
X99695000Y-145034000D03*
X102235000Y-145034000D03*
X104775000Y-145034000D03*
X107315000Y-145034000D03*
X109855000Y-145034000D03*
X112395000Y-145034000D03*
X114935000Y-145034000D03*
X117475000Y-145034000D03*
X120015000Y-145034000D03*
X122555000Y-145034000D03*
X125095000Y-145034000D03*
X127635000Y-145034000D03*
D27*
X81700000Y-128300000D03*
X115200000Y-135300000D03*
X133200000Y-127500000D03*
X60850000Y-130850000D03*
X100800000Y-132500000D03*
X60825000Y-124825000D03*
X97300000Y-132500000D03*
X115200000Y-138200000D03*
X74995000Y-140318750D03*
X77535000Y-140318750D03*
X84500000Y-140400000D03*
X106100000Y-139300000D03*
X116360660Y-139300000D03*
X54600000Y-120500000D03*
X59055000Y-129400000D03*
X59105000Y-136450000D03*
X77950000Y-115750000D03*
X83282844Y-130582844D03*
X59055000Y-123300000D03*
X132000000Y-124300000D03*
X132000000Y-120700000D03*
X132000000Y-117400000D03*
X67701125Y-123447541D03*
X70905025Y-130794975D03*
X73100000Y-130900000D03*
X69700000Y-123400000D03*
X71700000Y-131500000D03*
X68699997Y-123400000D03*
D28*
X63100000Y-138200000D02*
X135000000Y-138200000D01*
X58340000Y-112900000D02*
X58340000Y-110758750D01*
X69105000Y-116035000D02*
X69105000Y-110723750D01*
X46500000Y-130200000D02*
X51300000Y-130200000D01*
X137600000Y-128818750D02*
X137600000Y-127418750D01*
D29*
X104621200Y-121337550D02*
X104621200Y-128957550D01*
D28*
X128200000Y-119000000D02*
X128200000Y-122318750D01*
D29*
X119880000Y-121318750D02*
X118650000Y-122548750D01*
D28*
X60800000Y-130800000D02*
X60850000Y-130850000D01*
X97300000Y-121600000D02*
X97300000Y-118568750D01*
D29*
X117281250Y-123917500D02*
X118650000Y-122548750D01*
D28*
X133697056Y-115618750D02*
X133200000Y-116115806D01*
X69215000Y-145034000D02*
X69215000Y-138200000D01*
X135000000Y-138200000D02*
X140800000Y-132400000D01*
X137600000Y-116056669D02*
X137162081Y-115618750D01*
D29*
X102018750Y-130481250D02*
X102331250Y-130168750D01*
D28*
X133200000Y-116115806D02*
X133200000Y-127500000D01*
X44800000Y-115500000D02*
X44800000Y-128500000D01*
X81700000Y-138200000D02*
X81700000Y-128300000D01*
X137600000Y-117258750D02*
X137600000Y-116056669D01*
X49581250Y-110718750D02*
X44800000Y-115500000D01*
X69105000Y-110723750D02*
X69100000Y-110718750D01*
D29*
X115181250Y-135318750D02*
X115200000Y-135300000D01*
D28*
X58300000Y-110718750D02*
X49581250Y-110718750D01*
D29*
X112462500Y-134141250D02*
X111030000Y-132708750D01*
X100800000Y-130481250D02*
X102018750Y-130481250D01*
D28*
X69100000Y-110718750D02*
X58300000Y-110718750D01*
X97300000Y-132500000D02*
X97300000Y-121600000D01*
X60800000Y-135900000D02*
X63100000Y-138200000D01*
X127635000Y-138200000D02*
X127635000Y-145034000D01*
X66675000Y-145034000D02*
X66675000Y-138200000D01*
D29*
X117281250Y-128800000D02*
X117281250Y-123917500D01*
D28*
X137162081Y-115618750D02*
X133697056Y-115618750D01*
D29*
X104621200Y-128957550D02*
X103410000Y-130168750D01*
D28*
X133200000Y-127500000D02*
X133200000Y-129418750D01*
X123800000Y-119000000D02*
X128200000Y-119000000D01*
X123800000Y-119000000D02*
X123800000Y-113700000D01*
X100800000Y-130481250D02*
X100800000Y-132500000D01*
X129800000Y-129418750D02*
X128200000Y-127818750D01*
X134000000Y-129418750D02*
X129800000Y-129418750D01*
X123800000Y-113700000D02*
X122418750Y-112318750D01*
D29*
X116110000Y-114010000D02*
X116110000Y-114928750D01*
X115762500Y-113662500D02*
X116110000Y-114010000D01*
D28*
X58340000Y-110758750D02*
X58300000Y-110718750D01*
X136318750Y-110718750D02*
X69100000Y-110718750D01*
X122418750Y-112318750D02*
X115762500Y-112318750D01*
D29*
X102331250Y-130168750D02*
X103410000Y-130168750D01*
D28*
X140800000Y-115200000D02*
X136318750Y-110718750D01*
X86995000Y-145034000D02*
X86995000Y-138700000D01*
X60825000Y-124825000D02*
X60800000Y-124850000D01*
X112462500Y-135318750D02*
X115181250Y-135318750D01*
X137000000Y-129418750D02*
X137600000Y-128818750D01*
X60800000Y-124850000D02*
X60800000Y-130800000D01*
X93000000Y-118568750D02*
X92800000Y-118768750D01*
D29*
X115762500Y-112318750D02*
X115762500Y-113662500D01*
D28*
X60850000Y-130850000D02*
X60800000Y-130900000D01*
X60800000Y-130900000D02*
X60800000Y-135900000D01*
X97300000Y-138200000D02*
X97300000Y-132500000D01*
X44800000Y-128500000D02*
X46500000Y-130200000D01*
X83800000Y-121000000D02*
X83800000Y-118650000D01*
X84600000Y-121800000D02*
X83800000Y-121000000D01*
X123800000Y-121056250D02*
X123800000Y-119000000D01*
D29*
X123537500Y-121318750D02*
X119880000Y-121318750D01*
D28*
X97300000Y-118568750D02*
X93000000Y-118568750D01*
X134000000Y-129418750D02*
X137000000Y-129418750D01*
X128200000Y-127818750D02*
X128200000Y-122318750D01*
D29*
X112462500Y-135318750D02*
X112462500Y-134141250D01*
D28*
X140800000Y-132400000D02*
X140800000Y-115200000D01*
D29*
X123800000Y-121056250D02*
X123537500Y-121318750D01*
X117281250Y-128800000D02*
X118650000Y-130168750D01*
X105950000Y-120008750D02*
X104621200Y-121337550D01*
D28*
X128200000Y-110718750D02*
X128200000Y-119000000D01*
X97100000Y-121800000D02*
X84600000Y-121800000D01*
D30*
X74295000Y-145034000D02*
X74295000Y-140905000D01*
X74881250Y-140318750D02*
X74995000Y-140318750D01*
X74295000Y-140905000D02*
X74881250Y-140318750D01*
X76835000Y-140865000D02*
X77381250Y-140318750D01*
X77381250Y-140318750D02*
X77535000Y-140318750D01*
X76835000Y-145034000D02*
X76835000Y-140865000D01*
X84455000Y-145034000D02*
X84455000Y-140445000D01*
X84455000Y-140445000D02*
X84500000Y-140400000D01*
X104775000Y-140625000D02*
X104775000Y-145034000D01*
X106100000Y-139300000D02*
X104775000Y-140625000D01*
X116360660Y-139300000D02*
X111300000Y-139300000D01*
X109855000Y-140745000D02*
X109855000Y-145034000D01*
X111300000Y-139300000D02*
X109855000Y-140745000D01*
D28*
X59055000Y-120500000D02*
X59055000Y-122100000D01*
X59055000Y-122100000D02*
X59055000Y-123300000D01*
X59055000Y-117945000D02*
X59055000Y-120500000D01*
X59105000Y-136450000D02*
X59055000Y-136500000D01*
X59055000Y-120500000D02*
X54600000Y-120500000D01*
X51300000Y-121800000D02*
X51300000Y-123400000D01*
X83800000Y-113550000D02*
X85550000Y-113550000D01*
X85550000Y-113550000D02*
X86200000Y-114200000D01*
X86200000Y-118100000D02*
X86868750Y-118768750D01*
X83800000Y-113550000D02*
X81650000Y-113550000D01*
X60965000Y-116035000D02*
X59055000Y-117945000D01*
X59055000Y-136400000D02*
X59105000Y-136450000D01*
X59055000Y-122100000D02*
X79600000Y-122100000D01*
X59055000Y-123300000D02*
X59055000Y-136400000D01*
D29*
X77950000Y-115750000D02*
X79900000Y-115750000D01*
D28*
X59055000Y-136500000D02*
X59055000Y-145034000D01*
X86868750Y-118768750D02*
X88200000Y-118768750D01*
X83300000Y-125700000D02*
X83300000Y-130565688D01*
X79950000Y-115250000D02*
X79950000Y-122350000D01*
X81650000Y-113550000D02*
X79950000Y-115250000D01*
X79950000Y-122350000D02*
X83300000Y-125700000D01*
X55800000Y-114690000D02*
X59055000Y-117945000D01*
X83300000Y-130565688D02*
X83282844Y-130582844D01*
X55800000Y-112900000D02*
X55800000Y-114690000D01*
X64025000Y-116035000D02*
X60965000Y-116035000D01*
X54600000Y-120500000D02*
X52600000Y-120500000D01*
X86200000Y-114200000D02*
X86200000Y-118100000D01*
X52600000Y-120500000D02*
X51300000Y-121800000D01*
X99550000Y-113468750D02*
X97300000Y-113468750D01*
X99300000Y-124318750D02*
X98600000Y-125018750D01*
D29*
X109400000Y-135256250D02*
X109400000Y-133900000D01*
D28*
X123800000Y-135118750D02*
X123800000Y-133418750D01*
X133200000Y-114318750D02*
X132000000Y-115518750D01*
X137600000Y-119798750D02*
X139598750Y-119798750D01*
X121918750Y-137000000D02*
X123800000Y-135118750D01*
X139600000Y-119800000D02*
X139600000Y-115818750D01*
X95468750Y-113468750D02*
X97300000Y-113468750D01*
D29*
X102056250Y-127356250D02*
X102328750Y-127628750D01*
D28*
X139600000Y-131818750D02*
X138000000Y-133418750D01*
D29*
X102328750Y-127628750D02*
X103410000Y-127628750D01*
D28*
X105500000Y-135318750D02*
X109337500Y-135318750D01*
D29*
X123800000Y-124181250D02*
X122681250Y-124181250D01*
D28*
X90500000Y-118768750D02*
X90500000Y-112468750D01*
X94468750Y-112468750D02*
X95468750Y-113468750D01*
D29*
X112637500Y-113821300D02*
X112300000Y-114158800D01*
D28*
X138100000Y-114318750D02*
X133200000Y-114318750D01*
D29*
X109700000Y-131498750D02*
X111030000Y-130168750D01*
X121190000Y-122690000D02*
X121190000Y-122548750D01*
D28*
X98600000Y-125018750D02*
X98600000Y-133718750D01*
X139600000Y-121758750D02*
X139600000Y-131818750D01*
D29*
X112637500Y-112318750D02*
X112637500Y-113821300D01*
D28*
X100800000Y-124318750D02*
X100800000Y-114718750D01*
X100800000Y-127356250D02*
X100800000Y-124318750D01*
X105500000Y-136500000D02*
X106000000Y-137000000D01*
X98600000Y-133718750D02*
X100200000Y-135318750D01*
D29*
X112300000Y-114158800D02*
X112300000Y-116198750D01*
X122681250Y-124181250D02*
X121190000Y-122690000D01*
D28*
X139598750Y-119798750D02*
X139600000Y-119800000D01*
D29*
X109400000Y-133900000D02*
X109701200Y-133598800D01*
X100800000Y-127356250D02*
X102056250Y-127356250D01*
X109701200Y-131499950D02*
X109700000Y-131498750D01*
D28*
X138000000Y-133418750D02*
X123800000Y-133418750D01*
X90500000Y-112468750D02*
X94468750Y-112468750D01*
X100800000Y-114718750D02*
X103200000Y-112318750D01*
X100200000Y-135318750D02*
X105500000Y-135318750D01*
X132000000Y-120700000D02*
X132000000Y-124300000D01*
X105500000Y-135318750D02*
X105500000Y-136500000D01*
X139600000Y-115818750D02*
X138100000Y-114318750D01*
D29*
X112300000Y-116198750D02*
X111030000Y-117468750D01*
D28*
X100800000Y-114718750D02*
X99550000Y-113468750D01*
X132000000Y-115518750D02*
X132000000Y-120700000D01*
X137600000Y-122338750D02*
X139600000Y-122338750D01*
X100800000Y-124318750D02*
X99300000Y-124318750D01*
X123800000Y-133418750D02*
X123800000Y-124181250D01*
X90500000Y-112468750D02*
X90550000Y-112418750D01*
X106000000Y-137000000D02*
X121918750Y-137000000D01*
X139600000Y-121758750D02*
X139600000Y-119800000D01*
D29*
X109701200Y-133598800D02*
X109701200Y-131499950D01*
D28*
X103200000Y-112318750D02*
X112637500Y-112318750D01*
D30*
X70894975Y-130794975D02*
X70905025Y-130794975D01*
X67700000Y-123448666D02*
X67700000Y-127600000D01*
X67701125Y-123447541D02*
X67700000Y-123448666D01*
X67700000Y-127600000D02*
X70894975Y-130794975D01*
X69700000Y-127500000D02*
X73100000Y-130900000D01*
X69700000Y-123400000D02*
X69700000Y-127500000D01*
X68699997Y-123400000D02*
X68699997Y-127599997D01*
X68699997Y-127599997D02*
X71700000Y-130600000D01*
X71700000Y-130600000D02*
X71700000Y-131500000D01*
G04 #@! TA.AperFunction,Conductor*
G36*
X88043039Y-111488935D02*
G01*
X88088794Y-111541739D01*
X88100000Y-111593250D01*
X88100000Y-112218750D01*
X92900000Y-112218750D01*
X92900000Y-111593250D01*
X92919685Y-111526211D01*
X92972489Y-111480456D01*
X93024000Y-111469250D01*
X93976000Y-111469250D01*
X94043039Y-111488935D01*
X94088794Y-111541739D01*
X94100000Y-111593250D01*
X94100000Y-117376000D01*
X94080315Y-117443039D01*
X94027511Y-117488794D01*
X93976000Y-117500000D01*
X87074500Y-117500000D01*
X87007461Y-117480315D01*
X86961706Y-117427511D01*
X86950500Y-117376000D01*
X86950500Y-114263705D01*
X86951809Y-114245735D01*
X86952129Y-114243547D01*
X86955289Y-114221977D01*
X86950972Y-114172630D01*
X86950500Y-114161822D01*
X86950500Y-114156296D01*
X86950500Y-114156291D01*
X86946901Y-114125509D01*
X86946536Y-114121929D01*
X86939999Y-114047201D01*
X86938539Y-114040129D01*
X86938597Y-114040116D01*
X86936965Y-114032757D01*
X86936906Y-114032772D01*
X86935242Y-114025753D01*
X86935241Y-114025745D01*
X86909591Y-113955273D01*
X86908407Y-113951866D01*
X86906293Y-113945486D01*
X86900000Y-113906484D01*
X86900000Y-112718750D01*
X88100000Y-112718750D01*
X88100000Y-113516594D01*
X88106401Y-113576122D01*
X88106403Y-113576129D01*
X88156645Y-113710836D01*
X88156649Y-113710843D01*
X88242809Y-113825937D01*
X88242812Y-113825940D01*
X88357906Y-113912100D01*
X88357913Y-113912104D01*
X88492620Y-113962346D01*
X88492627Y-113962348D01*
X88552155Y-113968749D01*
X88552172Y-113968750D01*
X90250000Y-113968750D01*
X90250000Y-112718750D01*
X90750000Y-112718750D01*
X90750000Y-113968750D01*
X92447828Y-113968750D01*
X92447844Y-113968749D01*
X92507372Y-113962348D01*
X92507379Y-113962346D01*
X92642086Y-113912104D01*
X92642093Y-113912100D01*
X92757187Y-113825940D01*
X92757190Y-113825937D01*
X92843350Y-113710843D01*
X92843354Y-113710836D01*
X92893596Y-113576129D01*
X92893598Y-113576122D01*
X92899999Y-113516594D01*
X92900000Y-113516577D01*
X92900000Y-112718750D01*
X90750000Y-112718750D01*
X90250000Y-112718750D01*
X88100000Y-112718750D01*
X86900000Y-112718750D01*
X86900000Y-111593250D01*
X86919685Y-111526211D01*
X86972489Y-111480456D01*
X87024000Y-111469250D01*
X87976000Y-111469250D01*
X88043039Y-111488935D01*
G37*
G04 #@! TD.AperFunction*
M02*
