G04 #@! TF.GenerationSoftware,KiCad,Pcbnew,7.0.10-148-g62bb553460*
G04 #@! TF.CreationDate,2024-02-04T12:13:55+03:00*
G04 #@! TF.ProjectId,ZX_BUS_Mouse,5a585f42-5553-45f4-9d6f-7573652e6b69,rev?*
G04 #@! TF.SameCoordinates,Original*
G04 #@! TF.FileFunction,Legend,Bot*
G04 #@! TF.FilePolarity,Positive*
%FSLAX46Y46*%
G04 Gerber Fmt 4.6, Leading zero omitted, Abs format (unit mm)*
G04 Created by KiCad (PCBNEW 7.0.10-148-g62bb553460) date 2024-02-04 12:13:55*
%MOMM*%
%LPD*%
G01*
G04 APERTURE LIST*
G04 Aperture macros list*
%AMRoundRect*
0 Rectangle with rounded corners*
0 $1 Rounding radius*
0 $2 $3 $4 $5 $6 $7 $8 $9 X,Y pos of 4 corners*
0 Add a 4 corners polygon primitive as box body*
4,1,4,$2,$3,$4,$5,$6,$7,$8,$9,$2,$3,0*
0 Add four circle primitives for the rounded corners*
1,1,$1+$1,$2,$3*
1,1,$1+$1,$4,$5*
1,1,$1+$1,$6,$7*
1,1,$1+$1,$8,$9*
0 Add four rect primitives between the rounded corners*
20,1,$1+$1,$2,$3,$4,$5,0*
20,1,$1+$1,$4,$5,$6,$7,0*
20,1,$1+$1,$6,$7,$8,$9,0*
20,1,$1+$1,$8,$9,$2,$3,0*%
G04 Aperture macros list end*
%ADD10C,0.150000*%
%ADD11C,0.170000*%
%ADD12C,0.120000*%
%ADD13R,1.600000X1.600000*%
%ADD14C,1.600000*%
%ADD15O,3.500000X2.000000*%
%ADD16O,2.000000X4.000000*%
%ADD17R,1.700000X1.700000*%
%ADD18O,1.700000X1.700000*%
%ADD19R,1.422400X1.422400*%
%ADD20C,1.422400*%
%ADD21RoundRect,0.250000X-0.600000X-0.600000X0.600000X-0.600000X0.600000X0.600000X-0.600000X0.600000X0*%
%ADD22C,1.700000*%
%ADD23RoundRect,0.250000X-0.412500X-0.650000X0.412500X-0.650000X0.412500X0.650000X-0.412500X0.650000X0*%
%ADD24R,1.500000X2.000000*%
%ADD25R,3.800000X2.000000*%
%ADD26RoundRect,0.250000X-0.925000X0.875000X-0.925000X-0.875000X0.925000X-0.875000X0.925000X0.875000X0*%
%ADD27RoundRect,0.250000X-0.650000X0.412500X-0.650000X-0.412500X0.650000X-0.412500X0.650000X0.412500X0*%
%ADD28RoundRect,0.250000X0.650000X-0.412500X0.650000X0.412500X-0.650000X0.412500X-0.650000X-0.412500X0*%
%ADD29RoundRect,0.425000X-0.425000X3.575000X-0.425000X-3.575000X0.425000X-3.575000X0.425000X3.575000X0*%
G04 APERTURE END LIST*
D10*
X78829819Y-138186429D02*
X79067914Y-138186429D01*
X78972676Y-137972143D02*
X79067914Y-138186429D01*
X79067914Y-138186429D02*
X78972676Y-138400714D01*
X79258390Y-138057857D02*
X79067914Y-138186429D01*
X79067914Y-138186429D02*
X79258390Y-138315000D01*
X79829819Y-138743571D02*
X78829819Y-138743571D01*
X78829819Y-138743571D02*
X78829819Y-138957857D01*
X78829819Y-138957857D02*
X78877438Y-139086428D01*
X78877438Y-139086428D02*
X78972676Y-139172143D01*
X78972676Y-139172143D02*
X79067914Y-139215000D01*
X79067914Y-139215000D02*
X79258390Y-139257857D01*
X79258390Y-139257857D02*
X79401247Y-139257857D01*
X79401247Y-139257857D02*
X79591723Y-139215000D01*
X79591723Y-139215000D02*
X79686961Y-139172143D01*
X79686961Y-139172143D02*
X79782200Y-139086428D01*
X79782200Y-139086428D02*
X79829819Y-138957857D01*
X79829819Y-138957857D02*
X79829819Y-138743571D01*
X78829819Y-139557857D02*
X78829819Y-140115000D01*
X78829819Y-140115000D02*
X79210771Y-139815000D01*
X79210771Y-139815000D02*
X79210771Y-139943571D01*
X79210771Y-139943571D02*
X79258390Y-140029286D01*
X79258390Y-140029286D02*
X79306009Y-140072143D01*
X79306009Y-140072143D02*
X79401247Y-140115000D01*
X79401247Y-140115000D02*
X79639342Y-140115000D01*
X79639342Y-140115000D02*
X79734580Y-140072143D01*
X79734580Y-140072143D02*
X79782200Y-140029286D01*
X79782200Y-140029286D02*
X79829819Y-139943571D01*
X79829819Y-139943571D02*
X79829819Y-139686428D01*
X79829819Y-139686428D02*
X79782200Y-139600714D01*
X79782200Y-139600714D02*
X79734580Y-139557857D01*
X81369819Y-138186429D02*
X81607914Y-138186429D01*
X81512676Y-137972143D02*
X81607914Y-138186429D01*
X81607914Y-138186429D02*
X81512676Y-138400714D01*
X81798390Y-138057857D02*
X81607914Y-138186429D01*
X81607914Y-138186429D02*
X81798390Y-138315000D01*
X82369819Y-138743571D02*
X81369819Y-138743571D01*
X81369819Y-138743571D02*
X81369819Y-138957857D01*
X81369819Y-138957857D02*
X81417438Y-139086428D01*
X81417438Y-139086428D02*
X81512676Y-139172143D01*
X81512676Y-139172143D02*
X81607914Y-139215000D01*
X81607914Y-139215000D02*
X81798390Y-139257857D01*
X81798390Y-139257857D02*
X81941247Y-139257857D01*
X81941247Y-139257857D02*
X82131723Y-139215000D01*
X82131723Y-139215000D02*
X82226961Y-139172143D01*
X82226961Y-139172143D02*
X82322200Y-139086428D01*
X82322200Y-139086428D02*
X82369819Y-138957857D01*
X82369819Y-138957857D02*
X82369819Y-138743571D01*
X81703152Y-140029286D02*
X82369819Y-140029286D01*
X81322200Y-139815000D02*
X82036485Y-139600714D01*
X82036485Y-139600714D02*
X82036485Y-140157857D01*
X116929819Y-138341190D02*
X117167914Y-138341190D01*
X117072676Y-138150714D02*
X117167914Y-138341190D01*
X117167914Y-138341190D02*
X117072676Y-138531667D01*
X117358390Y-138226905D02*
X117167914Y-138341190D01*
X117167914Y-138341190D02*
X117358390Y-138455476D01*
X117644104Y-138798333D02*
X117644104Y-139179286D01*
X117929819Y-138722143D02*
X116929819Y-138988810D01*
X116929819Y-138988810D02*
X117929819Y-139255476D01*
X117358390Y-139636428D02*
X117310771Y-139560238D01*
X117310771Y-139560238D02*
X117263152Y-139522143D01*
X117263152Y-139522143D02*
X117167914Y-139484047D01*
X117167914Y-139484047D02*
X117120295Y-139484047D01*
X117120295Y-139484047D02*
X117025057Y-139522143D01*
X117025057Y-139522143D02*
X116977438Y-139560238D01*
X116977438Y-139560238D02*
X116929819Y-139636428D01*
X116929819Y-139636428D02*
X116929819Y-139788809D01*
X116929819Y-139788809D02*
X116977438Y-139865000D01*
X116977438Y-139865000D02*
X117025057Y-139903095D01*
X117025057Y-139903095D02*
X117120295Y-139941190D01*
X117120295Y-139941190D02*
X117167914Y-139941190D01*
X117167914Y-139941190D02*
X117263152Y-139903095D01*
X117263152Y-139903095D02*
X117310771Y-139865000D01*
X117310771Y-139865000D02*
X117358390Y-139788809D01*
X117358390Y-139788809D02*
X117358390Y-139636428D01*
X117358390Y-139636428D02*
X117406009Y-139560238D01*
X117406009Y-139560238D02*
X117453628Y-139522143D01*
X117453628Y-139522143D02*
X117548866Y-139484047D01*
X117548866Y-139484047D02*
X117739342Y-139484047D01*
X117739342Y-139484047D02*
X117834580Y-139522143D01*
X117834580Y-139522143D02*
X117882200Y-139560238D01*
X117882200Y-139560238D02*
X117929819Y-139636428D01*
X117929819Y-139636428D02*
X117929819Y-139788809D01*
X117929819Y-139788809D02*
X117882200Y-139865000D01*
X117882200Y-139865000D02*
X117834580Y-139903095D01*
X117834580Y-139903095D02*
X117739342Y-139941190D01*
X117739342Y-139941190D02*
X117548866Y-139941190D01*
X117548866Y-139941190D02*
X117453628Y-139903095D01*
X117453628Y-139903095D02*
X117406009Y-139865000D01*
X117406009Y-139865000D02*
X117358390Y-139788809D01*
X92529819Y-137431667D02*
X91529819Y-137431667D01*
X91529819Y-137431667D02*
X92244104Y-137665001D01*
X92244104Y-137665001D02*
X91529819Y-137898334D01*
X91529819Y-137898334D02*
X92529819Y-137898334D01*
X92529819Y-138631667D02*
X92053628Y-138398334D01*
X92529819Y-138231667D02*
X91529819Y-138231667D01*
X91529819Y-138231667D02*
X91529819Y-138498334D01*
X91529819Y-138498334D02*
X91577438Y-138565001D01*
X91577438Y-138565001D02*
X91625057Y-138598334D01*
X91625057Y-138598334D02*
X91720295Y-138631667D01*
X91720295Y-138631667D02*
X91863152Y-138631667D01*
X91863152Y-138631667D02*
X91958390Y-138598334D01*
X91958390Y-138598334D02*
X92006009Y-138565001D01*
X92006009Y-138565001D02*
X92053628Y-138498334D01*
X92053628Y-138498334D02*
X92053628Y-138231667D01*
X92006009Y-138931667D02*
X92006009Y-139165001D01*
X92529819Y-139265001D02*
X92529819Y-138931667D01*
X92529819Y-138931667D02*
X91529819Y-138931667D01*
X91529819Y-138931667D02*
X91529819Y-139265001D01*
X92625057Y-140031667D02*
X92577438Y-139965000D01*
X92577438Y-139965000D02*
X92482200Y-139898334D01*
X92482200Y-139898334D02*
X92339342Y-139798334D01*
X92339342Y-139798334D02*
X92291723Y-139731667D01*
X92291723Y-139731667D02*
X92291723Y-139665000D01*
X92529819Y-139698334D02*
X92482200Y-139631667D01*
X92482200Y-139631667D02*
X92386961Y-139565000D01*
X92386961Y-139565000D02*
X92196485Y-139531667D01*
X92196485Y-139531667D02*
X91863152Y-139531667D01*
X91863152Y-139531667D02*
X91672676Y-139565000D01*
X91672676Y-139565000D02*
X91577438Y-139631667D01*
X91577438Y-139631667D02*
X91529819Y-139698334D01*
X91529819Y-139698334D02*
X91529819Y-139831667D01*
X91529819Y-139831667D02*
X91577438Y-139898334D01*
X91577438Y-139898334D02*
X91672676Y-139965000D01*
X91672676Y-139965000D02*
X91863152Y-139998334D01*
X91863152Y-139998334D02*
X92196485Y-139998334D01*
X92196485Y-139998334D02*
X92386961Y-139965000D01*
X92386961Y-139965000D02*
X92482200Y-139898334D01*
X92482200Y-139898334D02*
X92529819Y-139831667D01*
X92529819Y-139831667D02*
X92529819Y-139698334D01*
X91482200Y-140798333D02*
X92767914Y-140198333D01*
X110309819Y-138036429D02*
X109309819Y-138036429D01*
X109309819Y-138036429D02*
X110309819Y-138493572D01*
X110309819Y-138493572D02*
X109309819Y-138493572D01*
X109309819Y-138874524D02*
X110119342Y-138874524D01*
X110119342Y-138874524D02*
X110214580Y-138912619D01*
X110214580Y-138912619D02*
X110262200Y-138950714D01*
X110262200Y-138950714D02*
X110309819Y-139026905D01*
X110309819Y-139026905D02*
X110309819Y-139179286D01*
X110309819Y-139179286D02*
X110262200Y-139255476D01*
X110262200Y-139255476D02*
X110214580Y-139293571D01*
X110214580Y-139293571D02*
X110119342Y-139331667D01*
X110119342Y-139331667D02*
X109309819Y-139331667D01*
X109643152Y-140055476D02*
X110309819Y-140055476D01*
X109262200Y-139865000D02*
X109976485Y-139674523D01*
X109976485Y-139674523D02*
X109976485Y-140169762D01*
X96609819Y-137693572D02*
X96847914Y-137693572D01*
X96752676Y-137479286D02*
X96847914Y-137693572D01*
X96847914Y-137693572D02*
X96752676Y-137907857D01*
X97038390Y-137565000D02*
X96847914Y-137693572D01*
X96847914Y-137693572D02*
X97038390Y-137822143D01*
X97609819Y-138765000D02*
X97133628Y-138465000D01*
X97609819Y-138250714D02*
X96609819Y-138250714D01*
X96609819Y-138250714D02*
X96609819Y-138593571D01*
X96609819Y-138593571D02*
X96657438Y-138679286D01*
X96657438Y-138679286D02*
X96705057Y-138722143D01*
X96705057Y-138722143D02*
X96800295Y-138765000D01*
X96800295Y-138765000D02*
X96943152Y-138765000D01*
X96943152Y-138765000D02*
X97038390Y-138722143D01*
X97038390Y-138722143D02*
X97086009Y-138679286D01*
X97086009Y-138679286D02*
X97133628Y-138593571D01*
X97133628Y-138593571D02*
X97133628Y-138250714D01*
X97609819Y-139150714D02*
X96609819Y-139150714D01*
X96609819Y-139150714D02*
X96609819Y-139365000D01*
X96609819Y-139365000D02*
X96657438Y-139493571D01*
X96657438Y-139493571D02*
X96752676Y-139579286D01*
X96752676Y-139579286D02*
X96847914Y-139622143D01*
X96847914Y-139622143D02*
X97038390Y-139665000D01*
X97038390Y-139665000D02*
X97181247Y-139665000D01*
X97181247Y-139665000D02*
X97371723Y-139622143D01*
X97371723Y-139622143D02*
X97466961Y-139579286D01*
X97466961Y-139579286D02*
X97562200Y-139493571D01*
X97562200Y-139493571D02*
X97609819Y-139365000D01*
X97609819Y-139365000D02*
X97609819Y-139150714D01*
X96562200Y-140693571D02*
X97847914Y-139922143D01*
X55969819Y-137960237D02*
X56207914Y-137960237D01*
X56112676Y-137769761D02*
X56207914Y-137960237D01*
X56207914Y-137960237D02*
X56112676Y-138150714D01*
X56398390Y-137845952D02*
X56207914Y-137960237D01*
X56207914Y-137960237D02*
X56398390Y-138074523D01*
X56684104Y-138417380D02*
X56684104Y-138798333D01*
X56969819Y-138341190D02*
X55969819Y-138607857D01*
X55969819Y-138607857D02*
X56969819Y-138874523D01*
X56969819Y-139560237D02*
X56969819Y-139103094D01*
X56969819Y-139331666D02*
X55969819Y-139331666D01*
X55969819Y-139331666D02*
X56112676Y-139255475D01*
X56112676Y-139255475D02*
X56207914Y-139179285D01*
X56207914Y-139179285D02*
X56255533Y-139103094D01*
X55969819Y-139826904D02*
X55969819Y-140322142D01*
X55969819Y-140322142D02*
X56350771Y-140055476D01*
X56350771Y-140055476D02*
X56350771Y-140169761D01*
X56350771Y-140169761D02*
X56398390Y-140245952D01*
X56398390Y-140245952D02*
X56446009Y-140284047D01*
X56446009Y-140284047D02*
X56541247Y-140322142D01*
X56541247Y-140322142D02*
X56779342Y-140322142D01*
X56779342Y-140322142D02*
X56874580Y-140284047D01*
X56874580Y-140284047D02*
X56922200Y-140245952D01*
X56922200Y-140245952D02*
X56969819Y-140169761D01*
X56969819Y-140169761D02*
X56969819Y-139941190D01*
X56969819Y-139941190D02*
X56922200Y-139864999D01*
X56922200Y-139864999D02*
X56874580Y-139826904D01*
X99149819Y-137629286D02*
X99387914Y-137629286D01*
X99292676Y-137415000D02*
X99387914Y-137629286D01*
X99387914Y-137629286D02*
X99292676Y-137843571D01*
X99578390Y-137500714D02*
X99387914Y-137629286D01*
X99387914Y-137629286D02*
X99578390Y-137757857D01*
X99149819Y-138100714D02*
X100149819Y-138315000D01*
X100149819Y-138315000D02*
X99435533Y-138486428D01*
X99435533Y-138486428D02*
X100149819Y-138657857D01*
X100149819Y-138657857D02*
X99149819Y-138872143D01*
X100149819Y-139729285D02*
X99673628Y-139429285D01*
X100149819Y-139214999D02*
X99149819Y-139214999D01*
X99149819Y-139214999D02*
X99149819Y-139557856D01*
X99149819Y-139557856D02*
X99197438Y-139643571D01*
X99197438Y-139643571D02*
X99245057Y-139686428D01*
X99245057Y-139686428D02*
X99340295Y-139729285D01*
X99340295Y-139729285D02*
X99483152Y-139729285D01*
X99483152Y-139729285D02*
X99578390Y-139686428D01*
X99578390Y-139686428D02*
X99626009Y-139643571D01*
X99626009Y-139643571D02*
X99673628Y-139557856D01*
X99673628Y-139557856D02*
X99673628Y-139214999D01*
X99102200Y-140757856D02*
X100387914Y-139986428D01*
X125168866Y-137231666D02*
X125168866Y-137765000D01*
X125549819Y-137498333D02*
X124787914Y-137498333D01*
X125549819Y-138465000D02*
X125549819Y-138065000D01*
X125549819Y-138265000D02*
X124549819Y-138265000D01*
X124549819Y-138265000D02*
X124692676Y-138198333D01*
X124692676Y-138198333D02*
X124787914Y-138131667D01*
X124787914Y-138131667D02*
X124835533Y-138065000D01*
X124645057Y-138731667D02*
X124597438Y-138765000D01*
X124597438Y-138765000D02*
X124549819Y-138831667D01*
X124549819Y-138831667D02*
X124549819Y-138998334D01*
X124549819Y-138998334D02*
X124597438Y-139065000D01*
X124597438Y-139065000D02*
X124645057Y-139098334D01*
X124645057Y-139098334D02*
X124740295Y-139131667D01*
X124740295Y-139131667D02*
X124835533Y-139131667D01*
X124835533Y-139131667D02*
X124978390Y-139098334D01*
X124978390Y-139098334D02*
X125549819Y-138698334D01*
X125549819Y-138698334D02*
X125549819Y-139131667D01*
X124549819Y-139331667D02*
X125549819Y-139565001D01*
X125549819Y-139565001D02*
X124549819Y-139798334D01*
X125645057Y-139865001D02*
X125645057Y-140398334D01*
X125549819Y-140931667D02*
X125549819Y-140531667D01*
X125549819Y-140731667D02*
X124549819Y-140731667D01*
X124549819Y-140731667D02*
X124692676Y-140665000D01*
X124692676Y-140665000D02*
X124787914Y-140598334D01*
X124787914Y-140598334D02*
X124835533Y-140531667D01*
X127137438Y-138455476D02*
X127089819Y-138379286D01*
X127089819Y-138379286D02*
X127089819Y-138265000D01*
X127089819Y-138265000D02*
X127137438Y-138150714D01*
X127137438Y-138150714D02*
X127232676Y-138074524D01*
X127232676Y-138074524D02*
X127327914Y-138036429D01*
X127327914Y-138036429D02*
X127518390Y-137998333D01*
X127518390Y-137998333D02*
X127661247Y-137998333D01*
X127661247Y-137998333D02*
X127851723Y-138036429D01*
X127851723Y-138036429D02*
X127946961Y-138074524D01*
X127946961Y-138074524D02*
X128042200Y-138150714D01*
X128042200Y-138150714D02*
X128089819Y-138265000D01*
X128089819Y-138265000D02*
X128089819Y-138341191D01*
X128089819Y-138341191D02*
X128042200Y-138455476D01*
X128042200Y-138455476D02*
X127994580Y-138493572D01*
X127994580Y-138493572D02*
X127661247Y-138493572D01*
X127661247Y-138493572D02*
X127661247Y-138341191D01*
X128089819Y-138836429D02*
X127089819Y-138836429D01*
X127089819Y-138836429D02*
X128089819Y-139293572D01*
X128089819Y-139293572D02*
X127089819Y-139293572D01*
X128089819Y-139674524D02*
X127089819Y-139674524D01*
X127089819Y-139674524D02*
X127089819Y-139865000D01*
X127089819Y-139865000D02*
X127137438Y-139979286D01*
X127137438Y-139979286D02*
X127232676Y-140055476D01*
X127232676Y-140055476D02*
X127327914Y-140093571D01*
X127327914Y-140093571D02*
X127518390Y-140131667D01*
X127518390Y-140131667D02*
X127661247Y-140131667D01*
X127661247Y-140131667D02*
X127851723Y-140093571D01*
X127851723Y-140093571D02*
X127946961Y-140055476D01*
X127946961Y-140055476D02*
X128042200Y-139979286D01*
X128042200Y-139979286D02*
X128089819Y-139865000D01*
X128089819Y-139865000D02*
X128089819Y-139674524D01*
X68669819Y-138186429D02*
X68907914Y-138186429D01*
X68812676Y-137972143D02*
X68907914Y-138186429D01*
X68907914Y-138186429D02*
X68812676Y-138400714D01*
X69098390Y-138057857D02*
X68907914Y-138186429D01*
X68907914Y-138186429D02*
X69098390Y-138315000D01*
X69669819Y-138743571D02*
X68669819Y-138743571D01*
X68669819Y-138743571D02*
X68669819Y-138957857D01*
X68669819Y-138957857D02*
X68717438Y-139086428D01*
X68717438Y-139086428D02*
X68812676Y-139172143D01*
X68812676Y-139172143D02*
X68907914Y-139215000D01*
X68907914Y-139215000D02*
X69098390Y-139257857D01*
X69098390Y-139257857D02*
X69241247Y-139257857D01*
X69241247Y-139257857D02*
X69431723Y-139215000D01*
X69431723Y-139215000D02*
X69526961Y-139172143D01*
X69526961Y-139172143D02*
X69622200Y-139086428D01*
X69622200Y-139086428D02*
X69669819Y-138957857D01*
X69669819Y-138957857D02*
X69669819Y-138743571D01*
X69669819Y-140115000D02*
X69669819Y-139600714D01*
X69669819Y-139857857D02*
X68669819Y-139857857D01*
X68669819Y-139857857D02*
X68812676Y-139772143D01*
X68812676Y-139772143D02*
X68907914Y-139686428D01*
X68907914Y-139686428D02*
X68955533Y-139600714D01*
X83909819Y-137731666D02*
X84147914Y-137731666D01*
X84052676Y-137541190D02*
X84147914Y-137731666D01*
X84147914Y-137731666D02*
X84052676Y-137922143D01*
X84338390Y-137617381D02*
X84147914Y-137731666D01*
X84147914Y-137731666D02*
X84338390Y-137845952D01*
X84909819Y-138226905D02*
X83909819Y-138226905D01*
X84909819Y-138607857D02*
X83909819Y-138607857D01*
X83909819Y-138607857D02*
X84909819Y-139065000D01*
X84909819Y-139065000D02*
X83909819Y-139065000D01*
X83909819Y-139331666D02*
X83909819Y-139788809D01*
X84909819Y-139560237D02*
X83909819Y-139560237D01*
X83862200Y-140626904D02*
X85147914Y-139941190D01*
X95069819Y-137615000D02*
X94069819Y-137615000D01*
X94069819Y-138081667D02*
X94069819Y-138215000D01*
X94069819Y-138215000D02*
X94117438Y-138281667D01*
X94117438Y-138281667D02*
X94212676Y-138348333D01*
X94212676Y-138348333D02*
X94403152Y-138381667D01*
X94403152Y-138381667D02*
X94736485Y-138381667D01*
X94736485Y-138381667D02*
X94926961Y-138348333D01*
X94926961Y-138348333D02*
X95022200Y-138281667D01*
X95022200Y-138281667D02*
X95069819Y-138215000D01*
X95069819Y-138215000D02*
X95069819Y-138081667D01*
X95069819Y-138081667D02*
X95022200Y-138015000D01*
X95022200Y-138015000D02*
X94926961Y-137948333D01*
X94926961Y-137948333D02*
X94736485Y-137915000D01*
X94736485Y-137915000D02*
X94403152Y-137915000D01*
X94403152Y-137915000D02*
X94212676Y-137948333D01*
X94212676Y-137948333D02*
X94117438Y-138015000D01*
X94117438Y-138015000D02*
X94069819Y-138081667D01*
X95069819Y-139081666D02*
X94593628Y-138848333D01*
X95069819Y-138681666D02*
X94069819Y-138681666D01*
X94069819Y-138681666D02*
X94069819Y-138948333D01*
X94069819Y-138948333D02*
X94117438Y-139015000D01*
X94117438Y-139015000D02*
X94165057Y-139048333D01*
X94165057Y-139048333D02*
X94260295Y-139081666D01*
X94260295Y-139081666D02*
X94403152Y-139081666D01*
X94403152Y-139081666D02*
X94498390Y-139048333D01*
X94498390Y-139048333D02*
X94546009Y-139015000D01*
X94546009Y-139015000D02*
X94593628Y-138948333D01*
X94593628Y-138948333D02*
X94593628Y-138681666D01*
X95165057Y-139848333D02*
X95117438Y-139781666D01*
X95117438Y-139781666D02*
X95022200Y-139715000D01*
X95022200Y-139715000D02*
X94879342Y-139615000D01*
X94879342Y-139615000D02*
X94831723Y-139548333D01*
X94831723Y-139548333D02*
X94831723Y-139481666D01*
X95069819Y-139515000D02*
X95022200Y-139448333D01*
X95022200Y-139448333D02*
X94926961Y-139381666D01*
X94926961Y-139381666D02*
X94736485Y-139348333D01*
X94736485Y-139348333D02*
X94403152Y-139348333D01*
X94403152Y-139348333D02*
X94212676Y-139381666D01*
X94212676Y-139381666D02*
X94117438Y-139448333D01*
X94117438Y-139448333D02*
X94069819Y-139515000D01*
X94069819Y-139515000D02*
X94069819Y-139648333D01*
X94069819Y-139648333D02*
X94117438Y-139715000D01*
X94117438Y-139715000D02*
X94212676Y-139781666D01*
X94212676Y-139781666D02*
X94403152Y-139815000D01*
X94403152Y-139815000D02*
X94736485Y-139815000D01*
X94736485Y-139815000D02*
X94926961Y-139781666D01*
X94926961Y-139781666D02*
X95022200Y-139715000D01*
X95022200Y-139715000D02*
X95069819Y-139648333D01*
X95069819Y-139648333D02*
X95069819Y-139515000D01*
X94022200Y-140614999D02*
X95307914Y-140014999D01*
X73749819Y-138186429D02*
X73987914Y-138186429D01*
X73892676Y-137972143D02*
X73987914Y-138186429D01*
X73987914Y-138186429D02*
X73892676Y-138400714D01*
X74178390Y-138057857D02*
X73987914Y-138186429D01*
X73987914Y-138186429D02*
X74178390Y-138315000D01*
X74749819Y-138743571D02*
X73749819Y-138743571D01*
X73749819Y-138743571D02*
X73749819Y-138957857D01*
X73749819Y-138957857D02*
X73797438Y-139086428D01*
X73797438Y-139086428D02*
X73892676Y-139172143D01*
X73892676Y-139172143D02*
X73987914Y-139215000D01*
X73987914Y-139215000D02*
X74178390Y-139257857D01*
X74178390Y-139257857D02*
X74321247Y-139257857D01*
X74321247Y-139257857D02*
X74511723Y-139215000D01*
X74511723Y-139215000D02*
X74606961Y-139172143D01*
X74606961Y-139172143D02*
X74702200Y-139086428D01*
X74702200Y-139086428D02*
X74749819Y-138957857D01*
X74749819Y-138957857D02*
X74749819Y-138743571D01*
X73749819Y-140029286D02*
X73749819Y-139857857D01*
X73749819Y-139857857D02*
X73797438Y-139772143D01*
X73797438Y-139772143D02*
X73845057Y-139729286D01*
X73845057Y-139729286D02*
X73987914Y-139643571D01*
X73987914Y-139643571D02*
X74178390Y-139600714D01*
X74178390Y-139600714D02*
X74559342Y-139600714D01*
X74559342Y-139600714D02*
X74654580Y-139643571D01*
X74654580Y-139643571D02*
X74702200Y-139686428D01*
X74702200Y-139686428D02*
X74749819Y-139772143D01*
X74749819Y-139772143D02*
X74749819Y-139943571D01*
X74749819Y-139943571D02*
X74702200Y-140029286D01*
X74702200Y-140029286D02*
X74654580Y-140072143D01*
X74654580Y-140072143D02*
X74559342Y-140115000D01*
X74559342Y-140115000D02*
X74321247Y-140115000D01*
X74321247Y-140115000D02*
X74226009Y-140072143D01*
X74226009Y-140072143D02*
X74178390Y-140029286D01*
X74178390Y-140029286D02*
X74130771Y-139943571D01*
X74130771Y-139943571D02*
X74130771Y-139772143D01*
X74130771Y-139772143D02*
X74178390Y-139686428D01*
X74178390Y-139686428D02*
X74226009Y-139643571D01*
X74226009Y-139643571D02*
X74321247Y-139600714D01*
X63589819Y-137431667D02*
X63589819Y-137831667D01*
X64589819Y-137631667D02*
X63589819Y-137631667D01*
X63589819Y-138065000D02*
X64399342Y-138065000D01*
X64399342Y-138065000D02*
X64494580Y-138098334D01*
X64494580Y-138098334D02*
X64542200Y-138131667D01*
X64542200Y-138131667D02*
X64589819Y-138198334D01*
X64589819Y-138198334D02*
X64589819Y-138331667D01*
X64589819Y-138331667D02*
X64542200Y-138398334D01*
X64542200Y-138398334D02*
X64494580Y-138431667D01*
X64494580Y-138431667D02*
X64399342Y-138465000D01*
X64399342Y-138465000D02*
X63589819Y-138465000D01*
X64589819Y-139198333D02*
X64113628Y-138965000D01*
X64589819Y-138798333D02*
X63589819Y-138798333D01*
X63589819Y-138798333D02*
X63589819Y-139065000D01*
X63589819Y-139065000D02*
X63637438Y-139131667D01*
X63637438Y-139131667D02*
X63685057Y-139165000D01*
X63685057Y-139165000D02*
X63780295Y-139198333D01*
X63780295Y-139198333D02*
X63923152Y-139198333D01*
X63923152Y-139198333D02*
X64018390Y-139165000D01*
X64018390Y-139165000D02*
X64066009Y-139131667D01*
X64066009Y-139131667D02*
X64113628Y-139065000D01*
X64113628Y-139065000D02*
X64113628Y-138798333D01*
X64066009Y-139731667D02*
X64113628Y-139831667D01*
X64113628Y-139831667D02*
X64161247Y-139865000D01*
X64161247Y-139865000D02*
X64256485Y-139898333D01*
X64256485Y-139898333D02*
X64399342Y-139898333D01*
X64399342Y-139898333D02*
X64494580Y-139865000D01*
X64494580Y-139865000D02*
X64542200Y-139831667D01*
X64542200Y-139831667D02*
X64589819Y-139765000D01*
X64589819Y-139765000D02*
X64589819Y-139498333D01*
X64589819Y-139498333D02*
X63589819Y-139498333D01*
X63589819Y-139498333D02*
X63589819Y-139731667D01*
X63589819Y-139731667D02*
X63637438Y-139798333D01*
X63637438Y-139798333D02*
X63685057Y-139831667D01*
X63685057Y-139831667D02*
X63780295Y-139865000D01*
X63780295Y-139865000D02*
X63875533Y-139865000D01*
X63875533Y-139865000D02*
X63970771Y-139831667D01*
X63970771Y-139831667D02*
X64018390Y-139798333D01*
X64018390Y-139798333D02*
X64066009Y-139731667D01*
X64066009Y-139731667D02*
X64066009Y-139498333D01*
X63589819Y-140331667D02*
X63589819Y-140465000D01*
X63589819Y-140465000D02*
X63637438Y-140531667D01*
X63637438Y-140531667D02*
X63732676Y-140598333D01*
X63732676Y-140598333D02*
X63923152Y-140631667D01*
X63923152Y-140631667D02*
X64256485Y-140631667D01*
X64256485Y-140631667D02*
X64446961Y-140598333D01*
X64446961Y-140598333D02*
X64542200Y-140531667D01*
X64542200Y-140531667D02*
X64589819Y-140465000D01*
X64589819Y-140465000D02*
X64589819Y-140331667D01*
X64589819Y-140331667D02*
X64542200Y-140265000D01*
X64542200Y-140265000D02*
X64446961Y-140198333D01*
X64446961Y-140198333D02*
X64256485Y-140165000D01*
X64256485Y-140165000D02*
X63923152Y-140165000D01*
X63923152Y-140165000D02*
X63732676Y-140198333D01*
X63732676Y-140198333D02*
X63637438Y-140265000D01*
X63637438Y-140265000D02*
X63589819Y-140331667D01*
X53429819Y-137960237D02*
X53667914Y-137960237D01*
X53572676Y-137769761D02*
X53667914Y-137960237D01*
X53667914Y-137960237D02*
X53572676Y-138150714D01*
X53858390Y-137845952D02*
X53667914Y-137960237D01*
X53667914Y-137960237D02*
X53858390Y-138074523D01*
X54144104Y-138417380D02*
X54144104Y-138798333D01*
X54429819Y-138341190D02*
X53429819Y-138607857D01*
X53429819Y-138607857D02*
X54429819Y-138874523D01*
X54429819Y-139560237D02*
X54429819Y-139103094D01*
X54429819Y-139331666D02*
X53429819Y-139331666D01*
X53429819Y-139331666D02*
X53572676Y-139255475D01*
X53572676Y-139255475D02*
X53667914Y-139179285D01*
X53667914Y-139179285D02*
X53715533Y-139103094D01*
X53429819Y-140284047D02*
X53429819Y-139903095D01*
X53429819Y-139903095D02*
X53906009Y-139864999D01*
X53906009Y-139864999D02*
X53858390Y-139903095D01*
X53858390Y-139903095D02*
X53810771Y-139979285D01*
X53810771Y-139979285D02*
X53810771Y-140169761D01*
X53810771Y-140169761D02*
X53858390Y-140245952D01*
X53858390Y-140245952D02*
X53906009Y-140284047D01*
X53906009Y-140284047D02*
X54001247Y-140322142D01*
X54001247Y-140322142D02*
X54239342Y-140322142D01*
X54239342Y-140322142D02*
X54334580Y-140284047D01*
X54334580Y-140284047D02*
X54382200Y-140245952D01*
X54382200Y-140245952D02*
X54429819Y-140169761D01*
X54429819Y-140169761D02*
X54429819Y-139979285D01*
X54429819Y-139979285D02*
X54382200Y-139903095D01*
X54382200Y-139903095D02*
X54334580Y-139864999D01*
X61526009Y-138315000D02*
X61573628Y-138443572D01*
X61573628Y-138443572D02*
X61621247Y-138486429D01*
X61621247Y-138486429D02*
X61716485Y-138529286D01*
X61716485Y-138529286D02*
X61859342Y-138529286D01*
X61859342Y-138529286D02*
X61954580Y-138486429D01*
X61954580Y-138486429D02*
X62002200Y-138443572D01*
X62002200Y-138443572D02*
X62049819Y-138357857D01*
X62049819Y-138357857D02*
X62049819Y-138015000D01*
X62049819Y-138015000D02*
X61049819Y-138015000D01*
X61049819Y-138015000D02*
X61049819Y-138315000D01*
X61049819Y-138315000D02*
X61097438Y-138400715D01*
X61097438Y-138400715D02*
X61145057Y-138443572D01*
X61145057Y-138443572D02*
X61240295Y-138486429D01*
X61240295Y-138486429D02*
X61335533Y-138486429D01*
X61335533Y-138486429D02*
X61430771Y-138443572D01*
X61430771Y-138443572D02*
X61478390Y-138400715D01*
X61478390Y-138400715D02*
X61526009Y-138315000D01*
X61526009Y-138315000D02*
X61526009Y-138015000D01*
X62049819Y-139343572D02*
X62049819Y-138915000D01*
X62049819Y-138915000D02*
X61049819Y-138915000D01*
X62049819Y-139643571D02*
X61049819Y-139643571D01*
X62049819Y-140157857D02*
X61478390Y-139772143D01*
X61049819Y-140157857D02*
X61621247Y-139643571D01*
X107769819Y-138036429D02*
X106769819Y-138036429D01*
X106769819Y-138036429D02*
X107769819Y-138493572D01*
X107769819Y-138493572D02*
X106769819Y-138493572D01*
X106769819Y-138874524D02*
X107579342Y-138874524D01*
X107579342Y-138874524D02*
X107674580Y-138912619D01*
X107674580Y-138912619D02*
X107722200Y-138950714D01*
X107722200Y-138950714D02*
X107769819Y-139026905D01*
X107769819Y-139026905D02*
X107769819Y-139179286D01*
X107769819Y-139179286D02*
X107722200Y-139255476D01*
X107722200Y-139255476D02*
X107674580Y-139293571D01*
X107674580Y-139293571D02*
X107579342Y-139331667D01*
X107579342Y-139331667D02*
X106769819Y-139331667D01*
X106769819Y-139636428D02*
X106769819Y-140131666D01*
X106769819Y-140131666D02*
X107150771Y-139865000D01*
X107150771Y-139865000D02*
X107150771Y-139979285D01*
X107150771Y-139979285D02*
X107198390Y-140055476D01*
X107198390Y-140055476D02*
X107246009Y-140093571D01*
X107246009Y-140093571D02*
X107341247Y-140131666D01*
X107341247Y-140131666D02*
X107579342Y-140131666D01*
X107579342Y-140131666D02*
X107674580Y-140093571D01*
X107674580Y-140093571D02*
X107722200Y-140055476D01*
X107722200Y-140055476D02*
X107769819Y-139979285D01*
X107769819Y-139979285D02*
X107769819Y-139750714D01*
X107769819Y-139750714D02*
X107722200Y-139674523D01*
X107722200Y-139674523D02*
X107674580Y-139636428D01*
X66129819Y-138186429D02*
X66367914Y-138186429D01*
X66272676Y-137972143D02*
X66367914Y-138186429D01*
X66367914Y-138186429D02*
X66272676Y-138400714D01*
X66558390Y-138057857D02*
X66367914Y-138186429D01*
X66367914Y-138186429D02*
X66558390Y-138315000D01*
X67129819Y-138743571D02*
X66129819Y-138743571D01*
X66129819Y-138743571D02*
X66129819Y-138957857D01*
X66129819Y-138957857D02*
X66177438Y-139086428D01*
X66177438Y-139086428D02*
X66272676Y-139172143D01*
X66272676Y-139172143D02*
X66367914Y-139215000D01*
X66367914Y-139215000D02*
X66558390Y-139257857D01*
X66558390Y-139257857D02*
X66701247Y-139257857D01*
X66701247Y-139257857D02*
X66891723Y-139215000D01*
X66891723Y-139215000D02*
X66986961Y-139172143D01*
X66986961Y-139172143D02*
X67082200Y-139086428D01*
X67082200Y-139086428D02*
X67129819Y-138957857D01*
X67129819Y-138957857D02*
X67129819Y-138743571D01*
X66129819Y-139815000D02*
X66129819Y-139900714D01*
X66129819Y-139900714D02*
X66177438Y-139986428D01*
X66177438Y-139986428D02*
X66225057Y-140029286D01*
X66225057Y-140029286D02*
X66320295Y-140072143D01*
X66320295Y-140072143D02*
X66510771Y-140115000D01*
X66510771Y-140115000D02*
X66748866Y-140115000D01*
X66748866Y-140115000D02*
X66939342Y-140072143D01*
X66939342Y-140072143D02*
X67034580Y-140029286D01*
X67034580Y-140029286D02*
X67082200Y-139986428D01*
X67082200Y-139986428D02*
X67129819Y-139900714D01*
X67129819Y-139900714D02*
X67129819Y-139815000D01*
X67129819Y-139815000D02*
X67082200Y-139729286D01*
X67082200Y-139729286D02*
X67034580Y-139686428D01*
X67034580Y-139686428D02*
X66939342Y-139643571D01*
X66939342Y-139643571D02*
X66748866Y-139600714D01*
X66748866Y-139600714D02*
X66510771Y-139600714D01*
X66510771Y-139600714D02*
X66320295Y-139643571D01*
X66320295Y-139643571D02*
X66225057Y-139686428D01*
X66225057Y-139686428D02*
X66177438Y-139729286D01*
X66177438Y-139729286D02*
X66129819Y-139815000D01*
X71209819Y-138186429D02*
X71447914Y-138186429D01*
X71352676Y-137972143D02*
X71447914Y-138186429D01*
X71447914Y-138186429D02*
X71352676Y-138400714D01*
X71638390Y-138057857D02*
X71447914Y-138186429D01*
X71447914Y-138186429D02*
X71638390Y-138315000D01*
X72209819Y-138743571D02*
X71209819Y-138743571D01*
X71209819Y-138743571D02*
X71209819Y-138957857D01*
X71209819Y-138957857D02*
X71257438Y-139086428D01*
X71257438Y-139086428D02*
X71352676Y-139172143D01*
X71352676Y-139172143D02*
X71447914Y-139215000D01*
X71447914Y-139215000D02*
X71638390Y-139257857D01*
X71638390Y-139257857D02*
X71781247Y-139257857D01*
X71781247Y-139257857D02*
X71971723Y-139215000D01*
X71971723Y-139215000D02*
X72066961Y-139172143D01*
X72066961Y-139172143D02*
X72162200Y-139086428D01*
X72162200Y-139086428D02*
X72209819Y-138957857D01*
X72209819Y-138957857D02*
X72209819Y-138743571D01*
X71305057Y-139600714D02*
X71257438Y-139643571D01*
X71257438Y-139643571D02*
X71209819Y-139729286D01*
X71209819Y-139729286D02*
X71209819Y-139943571D01*
X71209819Y-139943571D02*
X71257438Y-140029286D01*
X71257438Y-140029286D02*
X71305057Y-140072143D01*
X71305057Y-140072143D02*
X71400295Y-140115000D01*
X71400295Y-140115000D02*
X71495533Y-140115000D01*
X71495533Y-140115000D02*
X71638390Y-140072143D01*
X71638390Y-140072143D02*
X72209819Y-139557857D01*
X72209819Y-139557857D02*
X72209819Y-140115000D01*
D11*
X94616729Y-124144302D02*
X93816729Y-124144302D01*
X93816729Y-124144302D02*
X94616729Y-125344302D01*
X94616729Y-125344302D02*
X93816729Y-125344302D01*
X93473872Y-124144302D02*
X92673872Y-125344302D01*
X92673872Y-124144302D02*
X93473872Y-125344302D01*
X90902443Y-124715731D02*
X90731015Y-124772874D01*
X90731015Y-124772874D02*
X90673872Y-124830017D01*
X90673872Y-124830017D02*
X90616729Y-124944302D01*
X90616729Y-124944302D02*
X90616729Y-125115731D01*
X90616729Y-125115731D02*
X90673872Y-125230017D01*
X90673872Y-125230017D02*
X90731015Y-125287160D01*
X90731015Y-125287160D02*
X90845300Y-125344302D01*
X90845300Y-125344302D02*
X91302443Y-125344302D01*
X91302443Y-125344302D02*
X91302443Y-124144302D01*
X91302443Y-124144302D02*
X90902443Y-124144302D01*
X90902443Y-124144302D02*
X90788158Y-124201445D01*
X90788158Y-124201445D02*
X90731015Y-124258588D01*
X90731015Y-124258588D02*
X90673872Y-124372874D01*
X90673872Y-124372874D02*
X90673872Y-124487160D01*
X90673872Y-124487160D02*
X90731015Y-124601445D01*
X90731015Y-124601445D02*
X90788158Y-124658588D01*
X90788158Y-124658588D02*
X90902443Y-124715731D01*
X90902443Y-124715731D02*
X91302443Y-124715731D01*
X90102443Y-124144302D02*
X90102443Y-125115731D01*
X90102443Y-125115731D02*
X90045300Y-125230017D01*
X90045300Y-125230017D02*
X89988158Y-125287160D01*
X89988158Y-125287160D02*
X89873872Y-125344302D01*
X89873872Y-125344302D02*
X89645300Y-125344302D01*
X89645300Y-125344302D02*
X89531015Y-125287160D01*
X89531015Y-125287160D02*
X89473872Y-125230017D01*
X89473872Y-125230017D02*
X89416729Y-125115731D01*
X89416729Y-125115731D02*
X89416729Y-124144302D01*
X88902443Y-125287160D02*
X88731015Y-125344302D01*
X88731015Y-125344302D02*
X88445300Y-125344302D01*
X88445300Y-125344302D02*
X88331015Y-125287160D01*
X88331015Y-125287160D02*
X88273872Y-125230017D01*
X88273872Y-125230017D02*
X88216729Y-125115731D01*
X88216729Y-125115731D02*
X88216729Y-125001445D01*
X88216729Y-125001445D02*
X88273872Y-124887160D01*
X88273872Y-124887160D02*
X88331015Y-124830017D01*
X88331015Y-124830017D02*
X88445300Y-124772874D01*
X88445300Y-124772874D02*
X88673872Y-124715731D01*
X88673872Y-124715731D02*
X88788157Y-124658588D01*
X88788157Y-124658588D02*
X88845300Y-124601445D01*
X88845300Y-124601445D02*
X88902443Y-124487160D01*
X88902443Y-124487160D02*
X88902443Y-124372874D01*
X88902443Y-124372874D02*
X88845300Y-124258588D01*
X88845300Y-124258588D02*
X88788157Y-124201445D01*
X88788157Y-124201445D02*
X88673872Y-124144302D01*
X88673872Y-124144302D02*
X88388157Y-124144302D01*
X88388157Y-124144302D02*
X88216729Y-124201445D01*
X86788157Y-125344302D02*
X86788157Y-124144302D01*
X86102443Y-125344302D02*
X86616729Y-124658588D01*
X86102443Y-124144302D02*
X86788157Y-124830017D01*
X85131014Y-125287160D02*
X85245300Y-125344302D01*
X85245300Y-125344302D02*
X85473872Y-125344302D01*
X85473872Y-125344302D02*
X85588157Y-125287160D01*
X85588157Y-125287160D02*
X85645300Y-125172874D01*
X85645300Y-125172874D02*
X85645300Y-124715731D01*
X85645300Y-124715731D02*
X85588157Y-124601445D01*
X85588157Y-124601445D02*
X85473872Y-124544302D01*
X85473872Y-124544302D02*
X85245300Y-124544302D01*
X85245300Y-124544302D02*
X85131014Y-124601445D01*
X85131014Y-124601445D02*
X85073872Y-124715731D01*
X85073872Y-124715731D02*
X85073872Y-124830017D01*
X85073872Y-124830017D02*
X85645300Y-124944302D01*
X84559586Y-125344302D02*
X84559586Y-124544302D01*
X84559586Y-124658588D02*
X84502443Y-124601445D01*
X84502443Y-124601445D02*
X84388158Y-124544302D01*
X84388158Y-124544302D02*
X84216729Y-124544302D01*
X84216729Y-124544302D02*
X84102443Y-124601445D01*
X84102443Y-124601445D02*
X84045301Y-124715731D01*
X84045301Y-124715731D02*
X84045301Y-125344302D01*
X84045301Y-124715731D02*
X83988158Y-124601445D01*
X83988158Y-124601445D02*
X83873872Y-124544302D01*
X83873872Y-124544302D02*
X83702443Y-124544302D01*
X83702443Y-124544302D02*
X83588158Y-124601445D01*
X83588158Y-124601445D02*
X83531015Y-124715731D01*
X83531015Y-124715731D02*
X83531015Y-125344302D01*
X82959586Y-124544302D02*
X82959586Y-125744302D01*
X82959586Y-124601445D02*
X82845301Y-124544302D01*
X82845301Y-124544302D02*
X82616729Y-124544302D01*
X82616729Y-124544302D02*
X82502443Y-124601445D01*
X82502443Y-124601445D02*
X82445301Y-124658588D01*
X82445301Y-124658588D02*
X82388158Y-124772874D01*
X82388158Y-124772874D02*
X82388158Y-125115731D01*
X82388158Y-125115731D02*
X82445301Y-125230017D01*
X82445301Y-125230017D02*
X82502443Y-125287160D01*
X82502443Y-125287160D02*
X82616729Y-125344302D01*
X82616729Y-125344302D02*
X82845301Y-125344302D01*
X82845301Y-125344302D02*
X82959586Y-125287160D01*
X81931015Y-125287160D02*
X81816729Y-125344302D01*
X81816729Y-125344302D02*
X81588158Y-125344302D01*
X81588158Y-125344302D02*
X81473872Y-125287160D01*
X81473872Y-125287160D02*
X81416729Y-125172874D01*
X81416729Y-125172874D02*
X81416729Y-125115731D01*
X81416729Y-125115731D02*
X81473872Y-125001445D01*
X81473872Y-125001445D02*
X81588158Y-124944302D01*
X81588158Y-124944302D02*
X81759587Y-124944302D01*
X81759587Y-124944302D02*
X81873872Y-124887160D01*
X81873872Y-124887160D02*
X81931015Y-124772874D01*
X81931015Y-124772874D02*
X81931015Y-124715731D01*
X81931015Y-124715731D02*
X81873872Y-124601445D01*
X81873872Y-124601445D02*
X81759587Y-124544302D01*
X81759587Y-124544302D02*
X81588158Y-124544302D01*
X81588158Y-124544302D02*
X81473872Y-124601445D01*
X81073872Y-124544302D02*
X80616729Y-124544302D01*
X80902443Y-124144302D02*
X80902443Y-125172874D01*
X80902443Y-125172874D02*
X80845300Y-125287160D01*
X80845300Y-125287160D02*
X80731015Y-125344302D01*
X80731015Y-125344302D02*
X80616729Y-125344302D01*
X80045301Y-125344302D02*
X80159586Y-125287160D01*
X80159586Y-125287160D02*
X80216729Y-125230017D01*
X80216729Y-125230017D02*
X80273872Y-125115731D01*
X80273872Y-125115731D02*
X80273872Y-124772874D01*
X80273872Y-124772874D02*
X80216729Y-124658588D01*
X80216729Y-124658588D02*
X80159586Y-124601445D01*
X80159586Y-124601445D02*
X80045301Y-124544302D01*
X80045301Y-124544302D02*
X79873872Y-124544302D01*
X79873872Y-124544302D02*
X79759586Y-124601445D01*
X79759586Y-124601445D02*
X79702444Y-124658588D01*
X79702444Y-124658588D02*
X79645301Y-124772874D01*
X79645301Y-124772874D02*
X79645301Y-125115731D01*
X79645301Y-125115731D02*
X79702444Y-125230017D01*
X79702444Y-125230017D02*
X79759586Y-125287160D01*
X79759586Y-125287160D02*
X79873872Y-125344302D01*
X79873872Y-125344302D02*
X80045301Y-125344302D01*
X79131015Y-124544302D02*
X79131015Y-125344302D01*
X79131015Y-124658588D02*
X79073872Y-124601445D01*
X79073872Y-124601445D02*
X78959587Y-124544302D01*
X78959587Y-124544302D02*
X78788158Y-124544302D01*
X78788158Y-124544302D02*
X78673872Y-124601445D01*
X78673872Y-124601445D02*
X78616730Y-124715731D01*
X78616730Y-124715731D02*
X78616730Y-125344302D01*
X77131015Y-125344302D02*
X77131015Y-124144302D01*
X77131015Y-124144302D02*
X76731015Y-125001445D01*
X76731015Y-125001445D02*
X76331015Y-124144302D01*
X76331015Y-124144302D02*
X76331015Y-125344302D01*
X75588158Y-125344302D02*
X75702443Y-125287160D01*
X75702443Y-125287160D02*
X75759586Y-125230017D01*
X75759586Y-125230017D02*
X75816729Y-125115731D01*
X75816729Y-125115731D02*
X75816729Y-124772874D01*
X75816729Y-124772874D02*
X75759586Y-124658588D01*
X75759586Y-124658588D02*
X75702443Y-124601445D01*
X75702443Y-124601445D02*
X75588158Y-124544302D01*
X75588158Y-124544302D02*
X75416729Y-124544302D01*
X75416729Y-124544302D02*
X75302443Y-124601445D01*
X75302443Y-124601445D02*
X75245301Y-124658588D01*
X75245301Y-124658588D02*
X75188158Y-124772874D01*
X75188158Y-124772874D02*
X75188158Y-125115731D01*
X75188158Y-125115731D02*
X75245301Y-125230017D01*
X75245301Y-125230017D02*
X75302443Y-125287160D01*
X75302443Y-125287160D02*
X75416729Y-125344302D01*
X75416729Y-125344302D02*
X75588158Y-125344302D01*
X74159587Y-124544302D02*
X74159587Y-125344302D01*
X74673872Y-124544302D02*
X74673872Y-125172874D01*
X74673872Y-125172874D02*
X74616729Y-125287160D01*
X74616729Y-125287160D02*
X74502444Y-125344302D01*
X74502444Y-125344302D02*
X74331015Y-125344302D01*
X74331015Y-125344302D02*
X74216729Y-125287160D01*
X74216729Y-125287160D02*
X74159587Y-125230017D01*
X73645301Y-125287160D02*
X73531015Y-125344302D01*
X73531015Y-125344302D02*
X73302444Y-125344302D01*
X73302444Y-125344302D02*
X73188158Y-125287160D01*
X73188158Y-125287160D02*
X73131015Y-125172874D01*
X73131015Y-125172874D02*
X73131015Y-125115731D01*
X73131015Y-125115731D02*
X73188158Y-125001445D01*
X73188158Y-125001445D02*
X73302444Y-124944302D01*
X73302444Y-124944302D02*
X73473873Y-124944302D01*
X73473873Y-124944302D02*
X73588158Y-124887160D01*
X73588158Y-124887160D02*
X73645301Y-124772874D01*
X73645301Y-124772874D02*
X73645301Y-124715731D01*
X73645301Y-124715731D02*
X73588158Y-124601445D01*
X73588158Y-124601445D02*
X73473873Y-124544302D01*
X73473873Y-124544302D02*
X73302444Y-124544302D01*
X73302444Y-124544302D02*
X73188158Y-124601445D01*
X72159586Y-125287160D02*
X72273872Y-125344302D01*
X72273872Y-125344302D02*
X72502444Y-125344302D01*
X72502444Y-125344302D02*
X72616729Y-125287160D01*
X72616729Y-125287160D02*
X72673872Y-125172874D01*
X72673872Y-125172874D02*
X72673872Y-124715731D01*
X72673872Y-124715731D02*
X72616729Y-124601445D01*
X72616729Y-124601445D02*
X72502444Y-124544302D01*
X72502444Y-124544302D02*
X72273872Y-124544302D01*
X72273872Y-124544302D02*
X72159586Y-124601445D01*
X72159586Y-124601445D02*
X72102444Y-124715731D01*
X72102444Y-124715731D02*
X72102444Y-124830017D01*
X72102444Y-124830017D02*
X72673872Y-124944302D01*
X69988158Y-125230017D02*
X70045301Y-125287160D01*
X70045301Y-125287160D02*
X70216729Y-125344302D01*
X70216729Y-125344302D02*
X70331015Y-125344302D01*
X70331015Y-125344302D02*
X70502444Y-125287160D01*
X70502444Y-125287160D02*
X70616729Y-125172874D01*
X70616729Y-125172874D02*
X70673872Y-125058588D01*
X70673872Y-125058588D02*
X70731015Y-124830017D01*
X70731015Y-124830017D02*
X70731015Y-124658588D01*
X70731015Y-124658588D02*
X70673872Y-124430017D01*
X70673872Y-124430017D02*
X70616729Y-124315731D01*
X70616729Y-124315731D02*
X70502444Y-124201445D01*
X70502444Y-124201445D02*
X70331015Y-124144302D01*
X70331015Y-124144302D02*
X70216729Y-124144302D01*
X70216729Y-124144302D02*
X70045301Y-124201445D01*
X70045301Y-124201445D02*
X69988158Y-124258588D01*
X69302444Y-125344302D02*
X69416729Y-125287160D01*
X69416729Y-125287160D02*
X69473872Y-125230017D01*
X69473872Y-125230017D02*
X69531015Y-125115731D01*
X69531015Y-125115731D02*
X69531015Y-124772874D01*
X69531015Y-124772874D02*
X69473872Y-124658588D01*
X69473872Y-124658588D02*
X69416729Y-124601445D01*
X69416729Y-124601445D02*
X69302444Y-124544302D01*
X69302444Y-124544302D02*
X69131015Y-124544302D01*
X69131015Y-124544302D02*
X69016729Y-124601445D01*
X69016729Y-124601445D02*
X68959587Y-124658588D01*
X68959587Y-124658588D02*
X68902444Y-124772874D01*
X68902444Y-124772874D02*
X68902444Y-125115731D01*
X68902444Y-125115731D02*
X68959587Y-125230017D01*
X68959587Y-125230017D02*
X69016729Y-125287160D01*
X69016729Y-125287160D02*
X69131015Y-125344302D01*
X69131015Y-125344302D02*
X69302444Y-125344302D01*
X68388158Y-124544302D02*
X68388158Y-125344302D01*
X68388158Y-124658588D02*
X68331015Y-124601445D01*
X68331015Y-124601445D02*
X68216730Y-124544302D01*
X68216730Y-124544302D02*
X68045301Y-124544302D01*
X68045301Y-124544302D02*
X67931015Y-124601445D01*
X67931015Y-124601445D02*
X67873873Y-124715731D01*
X67873873Y-124715731D02*
X67873873Y-125344302D01*
X67473873Y-124544302D02*
X67016730Y-124544302D01*
X67302444Y-124144302D02*
X67302444Y-125172874D01*
X67302444Y-125172874D02*
X67245301Y-125287160D01*
X67245301Y-125287160D02*
X67131016Y-125344302D01*
X67131016Y-125344302D02*
X67016730Y-125344302D01*
X66616730Y-125344302D02*
X66616730Y-124544302D01*
X66616730Y-124772874D02*
X66559587Y-124658588D01*
X66559587Y-124658588D02*
X66502445Y-124601445D01*
X66502445Y-124601445D02*
X66388159Y-124544302D01*
X66388159Y-124544302D02*
X66273873Y-124544302D01*
X65702445Y-125344302D02*
X65816730Y-125287160D01*
X65816730Y-125287160D02*
X65873873Y-125230017D01*
X65873873Y-125230017D02*
X65931016Y-125115731D01*
X65931016Y-125115731D02*
X65931016Y-124772874D01*
X65931016Y-124772874D02*
X65873873Y-124658588D01*
X65873873Y-124658588D02*
X65816730Y-124601445D01*
X65816730Y-124601445D02*
X65702445Y-124544302D01*
X65702445Y-124544302D02*
X65531016Y-124544302D01*
X65531016Y-124544302D02*
X65416730Y-124601445D01*
X65416730Y-124601445D02*
X65359588Y-124658588D01*
X65359588Y-124658588D02*
X65302445Y-124772874D01*
X65302445Y-124772874D02*
X65302445Y-125115731D01*
X65302445Y-125115731D02*
X65359588Y-125230017D01*
X65359588Y-125230017D02*
X65416730Y-125287160D01*
X65416730Y-125287160D02*
X65531016Y-125344302D01*
X65531016Y-125344302D02*
X65702445Y-125344302D01*
X64616731Y-125344302D02*
X64731016Y-125287160D01*
X64731016Y-125287160D02*
X64788159Y-125172874D01*
X64788159Y-125172874D02*
X64788159Y-124144302D01*
X63988160Y-125344302D02*
X64102445Y-125287160D01*
X64102445Y-125287160D02*
X64159588Y-125172874D01*
X64159588Y-125172874D02*
X64159588Y-124144302D01*
X63073874Y-125287160D02*
X63188160Y-125344302D01*
X63188160Y-125344302D02*
X63416732Y-125344302D01*
X63416732Y-125344302D02*
X63531017Y-125287160D01*
X63531017Y-125287160D02*
X63588160Y-125172874D01*
X63588160Y-125172874D02*
X63588160Y-124715731D01*
X63588160Y-124715731D02*
X63531017Y-124601445D01*
X63531017Y-124601445D02*
X63416732Y-124544302D01*
X63416732Y-124544302D02*
X63188160Y-124544302D01*
X63188160Y-124544302D02*
X63073874Y-124601445D01*
X63073874Y-124601445D02*
X63016732Y-124715731D01*
X63016732Y-124715731D02*
X63016732Y-124830017D01*
X63016732Y-124830017D02*
X63588160Y-124944302D01*
X62502446Y-125344302D02*
X62502446Y-124544302D01*
X62502446Y-124772874D02*
X62445303Y-124658588D01*
X62445303Y-124658588D02*
X62388161Y-124601445D01*
X62388161Y-124601445D02*
X62273875Y-124544302D01*
X62273875Y-124544302D02*
X62159589Y-124544302D01*
D10*
X88989819Y-137598333D02*
X89227914Y-137598333D01*
X89132676Y-137407857D02*
X89227914Y-137598333D01*
X89227914Y-137598333D02*
X89132676Y-137788810D01*
X89418390Y-137484048D02*
X89227914Y-137598333D01*
X89227914Y-137598333D02*
X89418390Y-137712619D01*
X89989819Y-138093572D02*
X88989819Y-138093572D01*
X89466009Y-138093572D02*
X89466009Y-138550715D01*
X89989819Y-138550715D02*
X88989819Y-138550715D01*
X89989819Y-139312619D02*
X89989819Y-138931667D01*
X89989819Y-138931667D02*
X88989819Y-138931667D01*
X88989819Y-139465000D02*
X88989819Y-139922143D01*
X89989819Y-139693571D02*
X88989819Y-139693571D01*
X88942200Y-140760238D02*
X90227914Y-140074524D01*
X111849819Y-137807856D02*
X112087914Y-137807856D01*
X111992676Y-137617380D02*
X112087914Y-137807856D01*
X112087914Y-137807856D02*
X111992676Y-137998333D01*
X112278390Y-137693571D02*
X112087914Y-137807856D01*
X112087914Y-137807856D02*
X112278390Y-137922142D01*
X112849819Y-138303095D02*
X111849819Y-138303095D01*
X111849819Y-138303095D02*
X112564104Y-138569761D01*
X112564104Y-138569761D02*
X111849819Y-138836428D01*
X111849819Y-138836428D02*
X112849819Y-138836428D01*
X112849819Y-139636428D02*
X112849819Y-139179285D01*
X112849819Y-139407857D02*
X111849819Y-139407857D01*
X111849819Y-139407857D02*
X111992676Y-139331666D01*
X111992676Y-139331666D02*
X112087914Y-139255476D01*
X112087914Y-139255476D02*
X112135533Y-139179285D01*
X111802200Y-140550714D02*
X113087914Y-139865000D01*
X122628866Y-137350714D02*
X122628866Y-137960238D01*
X123009819Y-137655476D02*
X122247914Y-137655476D01*
X122009819Y-138722142D02*
X122009819Y-138341190D01*
X122009819Y-138341190D02*
X122486009Y-138303094D01*
X122486009Y-138303094D02*
X122438390Y-138341190D01*
X122438390Y-138341190D02*
X122390771Y-138417380D01*
X122390771Y-138417380D02*
X122390771Y-138607856D01*
X122390771Y-138607856D02*
X122438390Y-138684047D01*
X122438390Y-138684047D02*
X122486009Y-138722142D01*
X122486009Y-138722142D02*
X122581247Y-138760237D01*
X122581247Y-138760237D02*
X122819342Y-138760237D01*
X122819342Y-138760237D02*
X122914580Y-138722142D01*
X122914580Y-138722142D02*
X122962200Y-138684047D01*
X122962200Y-138684047D02*
X123009819Y-138607856D01*
X123009819Y-138607856D02*
X123009819Y-138417380D01*
X123009819Y-138417380D02*
X122962200Y-138341190D01*
X122962200Y-138341190D02*
X122914580Y-138303094D01*
X122009819Y-138988809D02*
X123009819Y-139255476D01*
X123009819Y-139255476D02*
X122009819Y-139522142D01*
X123105057Y-139598333D02*
X123105057Y-140207856D01*
X122105057Y-140360237D02*
X122057438Y-140398333D01*
X122057438Y-140398333D02*
X122009819Y-140474523D01*
X122009819Y-140474523D02*
X122009819Y-140664999D01*
X122009819Y-140664999D02*
X122057438Y-140741190D01*
X122057438Y-140741190D02*
X122105057Y-140779285D01*
X122105057Y-140779285D02*
X122200295Y-140817380D01*
X122200295Y-140817380D02*
X122295533Y-140817380D01*
X122295533Y-140817380D02*
X122438390Y-140779285D01*
X122438390Y-140779285D02*
X123009819Y-140322142D01*
X123009819Y-140322142D02*
X123009819Y-140817380D01*
X102689819Y-138036429D02*
X101689819Y-138036429D01*
X101689819Y-138036429D02*
X102689819Y-138493572D01*
X102689819Y-138493572D02*
X101689819Y-138493572D01*
X101689819Y-138874524D02*
X102499342Y-138874524D01*
X102499342Y-138874524D02*
X102594580Y-138912619D01*
X102594580Y-138912619D02*
X102642200Y-138950714D01*
X102642200Y-138950714D02*
X102689819Y-139026905D01*
X102689819Y-139026905D02*
X102689819Y-139179286D01*
X102689819Y-139179286D02*
X102642200Y-139255476D01*
X102642200Y-139255476D02*
X102594580Y-139293571D01*
X102594580Y-139293571D02*
X102499342Y-139331667D01*
X102499342Y-139331667D02*
X101689819Y-139331667D01*
X101785057Y-139674523D02*
X101737438Y-139712619D01*
X101737438Y-139712619D02*
X101689819Y-139788809D01*
X101689819Y-139788809D02*
X101689819Y-139979285D01*
X101689819Y-139979285D02*
X101737438Y-140055476D01*
X101737438Y-140055476D02*
X101785057Y-140093571D01*
X101785057Y-140093571D02*
X101880295Y-140131666D01*
X101880295Y-140131666D02*
X101975533Y-140131666D01*
X101975533Y-140131666D02*
X102118390Y-140093571D01*
X102118390Y-140093571D02*
X102689819Y-139636428D01*
X102689819Y-139636428D02*
X102689819Y-140131666D01*
X114389819Y-137348333D02*
X114627914Y-137348333D01*
X114532676Y-137181667D02*
X114627914Y-137348333D01*
X114627914Y-137348333D02*
X114532676Y-137515000D01*
X114818390Y-137248333D02*
X114627914Y-137348333D01*
X114627914Y-137348333D02*
X114818390Y-137448333D01*
X115389819Y-138181666D02*
X114913628Y-137948333D01*
X115389819Y-137781666D02*
X114389819Y-137781666D01*
X114389819Y-137781666D02*
X114389819Y-138048333D01*
X114389819Y-138048333D02*
X114437438Y-138115000D01*
X114437438Y-138115000D02*
X114485057Y-138148333D01*
X114485057Y-138148333D02*
X114580295Y-138181666D01*
X114580295Y-138181666D02*
X114723152Y-138181666D01*
X114723152Y-138181666D02*
X114818390Y-138148333D01*
X114818390Y-138148333D02*
X114866009Y-138115000D01*
X114866009Y-138115000D02*
X114913628Y-138048333D01*
X114913628Y-138048333D02*
X114913628Y-137781666D01*
X114866009Y-138715000D02*
X114866009Y-138481666D01*
X115389819Y-138481666D02*
X114389819Y-138481666D01*
X114389819Y-138481666D02*
X114389819Y-138815000D01*
X115342200Y-139048333D02*
X115389819Y-139148333D01*
X115389819Y-139148333D02*
X115389819Y-139315000D01*
X115389819Y-139315000D02*
X115342200Y-139381666D01*
X115342200Y-139381666D02*
X115294580Y-139415000D01*
X115294580Y-139415000D02*
X115199342Y-139448333D01*
X115199342Y-139448333D02*
X115104104Y-139448333D01*
X115104104Y-139448333D02*
X115008866Y-139415000D01*
X115008866Y-139415000D02*
X114961247Y-139381666D01*
X114961247Y-139381666D02*
X114913628Y-139315000D01*
X114913628Y-139315000D02*
X114866009Y-139181666D01*
X114866009Y-139181666D02*
X114818390Y-139115000D01*
X114818390Y-139115000D02*
X114770771Y-139081666D01*
X114770771Y-139081666D02*
X114675533Y-139048333D01*
X114675533Y-139048333D02*
X114580295Y-139048333D01*
X114580295Y-139048333D02*
X114485057Y-139081666D01*
X114485057Y-139081666D02*
X114437438Y-139115000D01*
X114437438Y-139115000D02*
X114389819Y-139181666D01*
X114389819Y-139181666D02*
X114389819Y-139348333D01*
X114389819Y-139348333D02*
X114437438Y-139448333D01*
X115389819Y-139748333D02*
X114389819Y-139748333D01*
X114866009Y-139748333D02*
X114866009Y-140148333D01*
X115389819Y-140148333D02*
X114389819Y-140148333D01*
X114342200Y-140981666D02*
X115627914Y-140381666D01*
X92634649Y-126603152D02*
X92634649Y-127412676D01*
X92634649Y-127412676D02*
X92682268Y-127507914D01*
X92682268Y-127507914D02*
X92729887Y-127555533D01*
X92729887Y-127555533D02*
X92825125Y-127603152D01*
X92825125Y-127603152D02*
X92967982Y-127603152D01*
X92967982Y-127603152D02*
X93063220Y-127555533D01*
X92634649Y-127222200D02*
X92729887Y-127269819D01*
X92729887Y-127269819D02*
X92920363Y-127269819D01*
X92920363Y-127269819D02*
X93015601Y-127222200D01*
X93015601Y-127222200D02*
X93063220Y-127174580D01*
X93063220Y-127174580D02*
X93110839Y-127079342D01*
X93110839Y-127079342D02*
X93110839Y-126793628D01*
X93110839Y-126793628D02*
X93063220Y-126698390D01*
X93063220Y-126698390D02*
X93015601Y-126650771D01*
X93015601Y-126650771D02*
X92920363Y-126603152D01*
X92920363Y-126603152D02*
X92729887Y-126603152D01*
X92729887Y-126603152D02*
X92634649Y-126650771D01*
X92158458Y-127269819D02*
X92158458Y-126603152D01*
X92158458Y-126269819D02*
X92206077Y-126317438D01*
X92206077Y-126317438D02*
X92158458Y-126365057D01*
X92158458Y-126365057D02*
X92110839Y-126317438D01*
X92110839Y-126317438D02*
X92158458Y-126269819D01*
X92158458Y-126269819D02*
X92158458Y-126365057D01*
X91825125Y-126603152D02*
X91444173Y-126603152D01*
X91682268Y-126269819D02*
X91682268Y-127126961D01*
X91682268Y-127126961D02*
X91634649Y-127222200D01*
X91634649Y-127222200D02*
X91539411Y-127269819D01*
X91539411Y-127269819D02*
X91444173Y-127269819D01*
X91110839Y-127269819D02*
X91110839Y-126269819D01*
X90682268Y-127269819D02*
X90682268Y-126746009D01*
X90682268Y-126746009D02*
X90729887Y-126650771D01*
X90729887Y-126650771D02*
X90825125Y-126603152D01*
X90825125Y-126603152D02*
X90967982Y-126603152D01*
X90967982Y-126603152D02*
X91063220Y-126650771D01*
X91063220Y-126650771D02*
X91110839Y-126698390D01*
X89777506Y-126603152D02*
X89777506Y-127269819D01*
X90206077Y-126603152D02*
X90206077Y-127126961D01*
X90206077Y-127126961D02*
X90158458Y-127222200D01*
X90158458Y-127222200D02*
X90063220Y-127269819D01*
X90063220Y-127269819D02*
X89920363Y-127269819D01*
X89920363Y-127269819D02*
X89825125Y-127222200D01*
X89825125Y-127222200D02*
X89777506Y-127174580D01*
X89301315Y-127269819D02*
X89301315Y-126269819D01*
X89301315Y-126650771D02*
X89206077Y-126603152D01*
X89206077Y-126603152D02*
X89015601Y-126603152D01*
X89015601Y-126603152D02*
X88920363Y-126650771D01*
X88920363Y-126650771D02*
X88872744Y-126698390D01*
X88872744Y-126698390D02*
X88825125Y-126793628D01*
X88825125Y-126793628D02*
X88825125Y-127079342D01*
X88825125Y-127079342D02*
X88872744Y-127174580D01*
X88872744Y-127174580D02*
X88920363Y-127222200D01*
X88920363Y-127222200D02*
X89015601Y-127269819D01*
X89015601Y-127269819D02*
X89206077Y-127269819D01*
X89206077Y-127269819D02*
X89301315Y-127222200D01*
X88396553Y-127174580D02*
X88348934Y-127222200D01*
X88348934Y-127222200D02*
X88396553Y-127269819D01*
X88396553Y-127269819D02*
X88444172Y-127222200D01*
X88444172Y-127222200D02*
X88396553Y-127174580D01*
X88396553Y-127174580D02*
X88396553Y-127269819D01*
X87491792Y-127222200D02*
X87587030Y-127269819D01*
X87587030Y-127269819D02*
X87777506Y-127269819D01*
X87777506Y-127269819D02*
X87872744Y-127222200D01*
X87872744Y-127222200D02*
X87920363Y-127174580D01*
X87920363Y-127174580D02*
X87967982Y-127079342D01*
X87967982Y-127079342D02*
X87967982Y-126793628D01*
X87967982Y-126793628D02*
X87920363Y-126698390D01*
X87920363Y-126698390D02*
X87872744Y-126650771D01*
X87872744Y-126650771D02*
X87777506Y-126603152D01*
X87777506Y-126603152D02*
X87587030Y-126603152D01*
X87587030Y-126603152D02*
X87491792Y-126650771D01*
X86920363Y-127269819D02*
X87015601Y-127222200D01*
X87015601Y-127222200D02*
X87063220Y-127174580D01*
X87063220Y-127174580D02*
X87110839Y-127079342D01*
X87110839Y-127079342D02*
X87110839Y-126793628D01*
X87110839Y-126793628D02*
X87063220Y-126698390D01*
X87063220Y-126698390D02*
X87015601Y-126650771D01*
X87015601Y-126650771D02*
X86920363Y-126603152D01*
X86920363Y-126603152D02*
X86777506Y-126603152D01*
X86777506Y-126603152D02*
X86682268Y-126650771D01*
X86682268Y-126650771D02*
X86634649Y-126698390D01*
X86634649Y-126698390D02*
X86587030Y-126793628D01*
X86587030Y-126793628D02*
X86587030Y-127079342D01*
X86587030Y-127079342D02*
X86634649Y-127174580D01*
X86634649Y-127174580D02*
X86682268Y-127222200D01*
X86682268Y-127222200D02*
X86777506Y-127269819D01*
X86777506Y-127269819D02*
X86920363Y-127269819D01*
X86158458Y-127269819D02*
X86158458Y-126603152D01*
X86158458Y-126698390D02*
X86110839Y-126650771D01*
X86110839Y-126650771D02*
X86015601Y-126603152D01*
X86015601Y-126603152D02*
X85872744Y-126603152D01*
X85872744Y-126603152D02*
X85777506Y-126650771D01*
X85777506Y-126650771D02*
X85729887Y-126746009D01*
X85729887Y-126746009D02*
X85729887Y-127269819D01*
X85729887Y-126746009D02*
X85682268Y-126650771D01*
X85682268Y-126650771D02*
X85587030Y-126603152D01*
X85587030Y-126603152D02*
X85444173Y-126603152D01*
X85444173Y-126603152D02*
X85348934Y-126650771D01*
X85348934Y-126650771D02*
X85301315Y-126746009D01*
X85301315Y-126746009D02*
X85301315Y-127269819D01*
X84110840Y-126222200D02*
X84967982Y-127507914D01*
X83777506Y-126603152D02*
X83777506Y-127603152D01*
X83777506Y-126650771D02*
X83682268Y-126603152D01*
X83682268Y-126603152D02*
X83491792Y-126603152D01*
X83491792Y-126603152D02*
X83396554Y-126650771D01*
X83396554Y-126650771D02*
X83348935Y-126698390D01*
X83348935Y-126698390D02*
X83301316Y-126793628D01*
X83301316Y-126793628D02*
X83301316Y-127079342D01*
X83301316Y-127079342D02*
X83348935Y-127174580D01*
X83348935Y-127174580D02*
X83396554Y-127222200D01*
X83396554Y-127222200D02*
X83491792Y-127269819D01*
X83491792Y-127269819D02*
X83682268Y-127269819D01*
X83682268Y-127269819D02*
X83777506Y-127222200D01*
X82872744Y-127269819D02*
X82872744Y-126603152D01*
X82872744Y-126793628D02*
X82825125Y-126698390D01*
X82825125Y-126698390D02*
X82777506Y-126650771D01*
X82777506Y-126650771D02*
X82682268Y-126603152D01*
X82682268Y-126603152D02*
X82587030Y-126603152D01*
X82110839Y-127269819D02*
X82206077Y-127222200D01*
X82206077Y-127222200D02*
X82253696Y-127174580D01*
X82253696Y-127174580D02*
X82301315Y-127079342D01*
X82301315Y-127079342D02*
X82301315Y-126793628D01*
X82301315Y-126793628D02*
X82253696Y-126698390D01*
X82253696Y-126698390D02*
X82206077Y-126650771D01*
X82206077Y-126650771D02*
X82110839Y-126603152D01*
X82110839Y-126603152D02*
X81967982Y-126603152D01*
X81967982Y-126603152D02*
X81872744Y-126650771D01*
X81872744Y-126650771D02*
X81825125Y-126698390D01*
X81825125Y-126698390D02*
X81777506Y-126793628D01*
X81777506Y-126793628D02*
X81777506Y-127079342D01*
X81777506Y-127079342D02*
X81825125Y-127174580D01*
X81825125Y-127174580D02*
X81872744Y-127222200D01*
X81872744Y-127222200D02*
X81967982Y-127269819D01*
X81967982Y-127269819D02*
X82110839Y-127269819D01*
X81348934Y-127269819D02*
X81348934Y-126269819D01*
X81348934Y-126650771D02*
X81253696Y-126603152D01*
X81253696Y-126603152D02*
X81063220Y-126603152D01*
X81063220Y-126603152D02*
X80967982Y-126650771D01*
X80967982Y-126650771D02*
X80920363Y-126698390D01*
X80920363Y-126698390D02*
X80872744Y-126793628D01*
X80872744Y-126793628D02*
X80872744Y-127079342D01*
X80872744Y-127079342D02*
X80920363Y-127174580D01*
X80920363Y-127174580D02*
X80967982Y-127222200D01*
X80967982Y-127222200D02*
X81063220Y-127269819D01*
X81063220Y-127269819D02*
X81253696Y-127269819D01*
X81253696Y-127269819D02*
X81348934Y-127222200D01*
X80301315Y-127269819D02*
X80396553Y-127222200D01*
X80396553Y-127222200D02*
X80444172Y-127174580D01*
X80444172Y-127174580D02*
X80491791Y-127079342D01*
X80491791Y-127079342D02*
X80491791Y-126793628D01*
X80491791Y-126793628D02*
X80444172Y-126698390D01*
X80444172Y-126698390D02*
X80396553Y-126650771D01*
X80396553Y-126650771D02*
X80301315Y-126603152D01*
X80301315Y-126603152D02*
X80158458Y-126603152D01*
X80158458Y-126603152D02*
X80063220Y-126650771D01*
X80063220Y-126650771D02*
X80015601Y-126698390D01*
X80015601Y-126698390D02*
X79967982Y-126793628D01*
X79967982Y-126793628D02*
X79967982Y-127079342D01*
X79967982Y-127079342D02*
X80015601Y-127174580D01*
X80015601Y-127174580D02*
X80063220Y-127222200D01*
X80063220Y-127222200D02*
X80158458Y-127269819D01*
X80158458Y-127269819D02*
X80301315Y-127269819D01*
X79682267Y-126603152D02*
X79301315Y-126603152D01*
X79539410Y-126269819D02*
X79539410Y-127126961D01*
X79539410Y-127126961D02*
X79491791Y-127222200D01*
X79491791Y-127222200D02*
X79396553Y-127269819D01*
X79396553Y-127269819D02*
X79301315Y-127269819D01*
X78587029Y-127222200D02*
X78682267Y-127269819D01*
X78682267Y-127269819D02*
X78872743Y-127269819D01*
X78872743Y-127269819D02*
X78967981Y-127222200D01*
X78967981Y-127222200D02*
X79015600Y-127126961D01*
X79015600Y-127126961D02*
X79015600Y-126746009D01*
X79015600Y-126746009D02*
X78967981Y-126650771D01*
X78967981Y-126650771D02*
X78872743Y-126603152D01*
X78872743Y-126603152D02*
X78682267Y-126603152D01*
X78682267Y-126603152D02*
X78587029Y-126650771D01*
X78587029Y-126650771D02*
X78539410Y-126746009D01*
X78539410Y-126746009D02*
X78539410Y-126841247D01*
X78539410Y-126841247D02*
X79015600Y-126936485D01*
X78110838Y-127269819D02*
X78110838Y-126603152D01*
X78110838Y-126793628D02*
X78063219Y-126698390D01*
X78063219Y-126698390D02*
X78015600Y-126650771D01*
X78015600Y-126650771D02*
X77920362Y-126603152D01*
X77920362Y-126603152D02*
X77825124Y-126603152D01*
X77491790Y-127269819D02*
X77491790Y-126603152D01*
X77491790Y-126793628D02*
X77444171Y-126698390D01*
X77444171Y-126698390D02*
X77396552Y-126650771D01*
X77396552Y-126650771D02*
X77301314Y-126603152D01*
X77301314Y-126603152D02*
X77206076Y-126603152D01*
X76729885Y-127269819D02*
X76825123Y-127222200D01*
X76825123Y-127222200D02*
X76872742Y-127174580D01*
X76872742Y-127174580D02*
X76920361Y-127079342D01*
X76920361Y-127079342D02*
X76920361Y-126793628D01*
X76920361Y-126793628D02*
X76872742Y-126698390D01*
X76872742Y-126698390D02*
X76825123Y-126650771D01*
X76825123Y-126650771D02*
X76729885Y-126603152D01*
X76729885Y-126603152D02*
X76587028Y-126603152D01*
X76587028Y-126603152D02*
X76491790Y-126650771D01*
X76491790Y-126650771D02*
X76444171Y-126698390D01*
X76444171Y-126698390D02*
X76396552Y-126793628D01*
X76396552Y-126793628D02*
X76396552Y-127079342D01*
X76396552Y-127079342D02*
X76444171Y-127174580D01*
X76444171Y-127174580D02*
X76491790Y-127222200D01*
X76491790Y-127222200D02*
X76587028Y-127269819D01*
X76587028Y-127269819D02*
X76729885Y-127269819D01*
X75967980Y-127269819D02*
X75967980Y-126603152D01*
X75967980Y-126793628D02*
X75920361Y-126698390D01*
X75920361Y-126698390D02*
X75872742Y-126650771D01*
X75872742Y-126650771D02*
X75777504Y-126603152D01*
X75777504Y-126603152D02*
X75682266Y-126603152D01*
X74634647Y-126222200D02*
X75491789Y-127507914D01*
X74396551Y-126269819D02*
X73729885Y-126269819D01*
X73729885Y-126269819D02*
X74396551Y-127269819D01*
X74396551Y-127269819D02*
X73729885Y-127269819D01*
X73444170Y-126269819D02*
X72777504Y-127269819D01*
X72777504Y-126269819D02*
X73444170Y-127269819D01*
X72634647Y-127365057D02*
X71872742Y-127365057D01*
X71301313Y-126746009D02*
X71158456Y-126793628D01*
X71158456Y-126793628D02*
X71110837Y-126841247D01*
X71110837Y-126841247D02*
X71063218Y-126936485D01*
X71063218Y-126936485D02*
X71063218Y-127079342D01*
X71063218Y-127079342D02*
X71110837Y-127174580D01*
X71110837Y-127174580D02*
X71158456Y-127222200D01*
X71158456Y-127222200D02*
X71253694Y-127269819D01*
X71253694Y-127269819D02*
X71634646Y-127269819D01*
X71634646Y-127269819D02*
X71634646Y-126269819D01*
X71634646Y-126269819D02*
X71301313Y-126269819D01*
X71301313Y-126269819D02*
X71206075Y-126317438D01*
X71206075Y-126317438D02*
X71158456Y-126365057D01*
X71158456Y-126365057D02*
X71110837Y-126460295D01*
X71110837Y-126460295D02*
X71110837Y-126555533D01*
X71110837Y-126555533D02*
X71158456Y-126650771D01*
X71158456Y-126650771D02*
X71206075Y-126698390D01*
X71206075Y-126698390D02*
X71301313Y-126746009D01*
X71301313Y-126746009D02*
X71634646Y-126746009D01*
X70634646Y-126269819D02*
X70634646Y-127079342D01*
X70634646Y-127079342D02*
X70587027Y-127174580D01*
X70587027Y-127174580D02*
X70539408Y-127222200D01*
X70539408Y-127222200D02*
X70444170Y-127269819D01*
X70444170Y-127269819D02*
X70253694Y-127269819D01*
X70253694Y-127269819D02*
X70158456Y-127222200D01*
X70158456Y-127222200D02*
X70110837Y-127174580D01*
X70110837Y-127174580D02*
X70063218Y-127079342D01*
X70063218Y-127079342D02*
X70063218Y-126269819D01*
X69634646Y-127222200D02*
X69491789Y-127269819D01*
X69491789Y-127269819D02*
X69253694Y-127269819D01*
X69253694Y-127269819D02*
X69158456Y-127222200D01*
X69158456Y-127222200D02*
X69110837Y-127174580D01*
X69110837Y-127174580D02*
X69063218Y-127079342D01*
X69063218Y-127079342D02*
X69063218Y-126984104D01*
X69063218Y-126984104D02*
X69110837Y-126888866D01*
X69110837Y-126888866D02*
X69158456Y-126841247D01*
X69158456Y-126841247D02*
X69253694Y-126793628D01*
X69253694Y-126793628D02*
X69444170Y-126746009D01*
X69444170Y-126746009D02*
X69539408Y-126698390D01*
X69539408Y-126698390D02*
X69587027Y-126650771D01*
X69587027Y-126650771D02*
X69634646Y-126555533D01*
X69634646Y-126555533D02*
X69634646Y-126460295D01*
X69634646Y-126460295D02*
X69587027Y-126365057D01*
X69587027Y-126365057D02*
X69539408Y-126317438D01*
X69539408Y-126317438D02*
X69444170Y-126269819D01*
X69444170Y-126269819D02*
X69206075Y-126269819D01*
X69206075Y-126269819D02*
X69063218Y-126317438D01*
X68872742Y-127365057D02*
X68110837Y-127365057D01*
X67872741Y-127269819D02*
X67872741Y-126269819D01*
X67872741Y-126269819D02*
X67539408Y-126984104D01*
X67539408Y-126984104D02*
X67206075Y-126269819D01*
X67206075Y-126269819D02*
X67206075Y-127269819D01*
X66587027Y-127269819D02*
X66682265Y-127222200D01*
X66682265Y-127222200D02*
X66729884Y-127174580D01*
X66729884Y-127174580D02*
X66777503Y-127079342D01*
X66777503Y-127079342D02*
X66777503Y-126793628D01*
X66777503Y-126793628D02*
X66729884Y-126698390D01*
X66729884Y-126698390D02*
X66682265Y-126650771D01*
X66682265Y-126650771D02*
X66587027Y-126603152D01*
X66587027Y-126603152D02*
X66444170Y-126603152D01*
X66444170Y-126603152D02*
X66348932Y-126650771D01*
X66348932Y-126650771D02*
X66301313Y-126698390D01*
X66301313Y-126698390D02*
X66253694Y-126793628D01*
X66253694Y-126793628D02*
X66253694Y-127079342D01*
X66253694Y-127079342D02*
X66301313Y-127174580D01*
X66301313Y-127174580D02*
X66348932Y-127222200D01*
X66348932Y-127222200D02*
X66444170Y-127269819D01*
X66444170Y-127269819D02*
X66587027Y-127269819D01*
X65396551Y-126603152D02*
X65396551Y-127269819D01*
X65825122Y-126603152D02*
X65825122Y-127126961D01*
X65825122Y-127126961D02*
X65777503Y-127222200D01*
X65777503Y-127222200D02*
X65682265Y-127269819D01*
X65682265Y-127269819D02*
X65539408Y-127269819D01*
X65539408Y-127269819D02*
X65444170Y-127222200D01*
X65444170Y-127222200D02*
X65396551Y-127174580D01*
X64967979Y-127222200D02*
X64872741Y-127269819D01*
X64872741Y-127269819D02*
X64682265Y-127269819D01*
X64682265Y-127269819D02*
X64587027Y-127222200D01*
X64587027Y-127222200D02*
X64539408Y-127126961D01*
X64539408Y-127126961D02*
X64539408Y-127079342D01*
X64539408Y-127079342D02*
X64587027Y-126984104D01*
X64587027Y-126984104D02*
X64682265Y-126936485D01*
X64682265Y-126936485D02*
X64825122Y-126936485D01*
X64825122Y-126936485D02*
X64920360Y-126888866D01*
X64920360Y-126888866D02*
X64967979Y-126793628D01*
X64967979Y-126793628D02*
X64967979Y-126746009D01*
X64967979Y-126746009D02*
X64920360Y-126650771D01*
X64920360Y-126650771D02*
X64825122Y-126603152D01*
X64825122Y-126603152D02*
X64682265Y-126603152D01*
X64682265Y-126603152D02*
X64587027Y-126650771D01*
X63729884Y-127222200D02*
X63825122Y-127269819D01*
X63825122Y-127269819D02*
X64015598Y-127269819D01*
X64015598Y-127269819D02*
X64110836Y-127222200D01*
X64110836Y-127222200D02*
X64158455Y-127126961D01*
X64158455Y-127126961D02*
X64158455Y-126746009D01*
X64158455Y-126746009D02*
X64110836Y-126650771D01*
X64110836Y-126650771D02*
X64015598Y-126603152D01*
X64015598Y-126603152D02*
X63825122Y-126603152D01*
X63825122Y-126603152D02*
X63729884Y-126650771D01*
X63729884Y-126650771D02*
X63682265Y-126746009D01*
X63682265Y-126746009D02*
X63682265Y-126841247D01*
X63682265Y-126841247D02*
X64158455Y-126936485D01*
X58509819Y-138186429D02*
X58747914Y-138186429D01*
X58652676Y-137972143D02*
X58747914Y-138186429D01*
X58747914Y-138186429D02*
X58652676Y-138400714D01*
X58938390Y-138057857D02*
X58747914Y-138186429D01*
X58747914Y-138186429D02*
X58938390Y-138315000D01*
X59509819Y-138743571D02*
X58509819Y-138743571D01*
X58509819Y-138743571D02*
X58509819Y-138957857D01*
X58509819Y-138957857D02*
X58557438Y-139086428D01*
X58557438Y-139086428D02*
X58652676Y-139172143D01*
X58652676Y-139172143D02*
X58747914Y-139215000D01*
X58747914Y-139215000D02*
X58938390Y-139257857D01*
X58938390Y-139257857D02*
X59081247Y-139257857D01*
X59081247Y-139257857D02*
X59271723Y-139215000D01*
X59271723Y-139215000D02*
X59366961Y-139172143D01*
X59366961Y-139172143D02*
X59462200Y-139086428D01*
X59462200Y-139086428D02*
X59509819Y-138957857D01*
X59509819Y-138957857D02*
X59509819Y-138743571D01*
X58509819Y-139557857D02*
X58509819Y-140157857D01*
X58509819Y-140157857D02*
X59509819Y-139772143D01*
X86449819Y-137579285D02*
X86687914Y-137579285D01*
X86592676Y-137388809D02*
X86687914Y-137579285D01*
X86687914Y-137579285D02*
X86592676Y-137769762D01*
X86878390Y-137465000D02*
X86687914Y-137579285D01*
X86687914Y-137579285D02*
X86878390Y-137693571D01*
X87449819Y-138074524D02*
X86449819Y-138074524D01*
X86449819Y-138074524D02*
X87449819Y-138531667D01*
X87449819Y-138531667D02*
X86449819Y-138531667D01*
X87449819Y-138912619D02*
X86449819Y-138912619D01*
X86449819Y-138912619D02*
X87164104Y-139179285D01*
X87164104Y-139179285D02*
X86449819Y-139445952D01*
X86449819Y-139445952D02*
X87449819Y-139445952D01*
X87449819Y-139826905D02*
X86449819Y-139826905D01*
X86402200Y-140779285D02*
X87687914Y-140093571D01*
X76289819Y-138186429D02*
X76527914Y-138186429D01*
X76432676Y-137972143D02*
X76527914Y-138186429D01*
X76527914Y-138186429D02*
X76432676Y-138400714D01*
X76718390Y-138057857D02*
X76527914Y-138186429D01*
X76527914Y-138186429D02*
X76718390Y-138315000D01*
X77289819Y-138743571D02*
X76289819Y-138743571D01*
X76289819Y-138743571D02*
X76289819Y-138957857D01*
X76289819Y-138957857D02*
X76337438Y-139086428D01*
X76337438Y-139086428D02*
X76432676Y-139172143D01*
X76432676Y-139172143D02*
X76527914Y-139215000D01*
X76527914Y-139215000D02*
X76718390Y-139257857D01*
X76718390Y-139257857D02*
X76861247Y-139257857D01*
X76861247Y-139257857D02*
X77051723Y-139215000D01*
X77051723Y-139215000D02*
X77146961Y-139172143D01*
X77146961Y-139172143D02*
X77242200Y-139086428D01*
X77242200Y-139086428D02*
X77289819Y-138957857D01*
X77289819Y-138957857D02*
X77289819Y-138743571D01*
X76289819Y-140072143D02*
X76289819Y-139643571D01*
X76289819Y-139643571D02*
X76766009Y-139600714D01*
X76766009Y-139600714D02*
X76718390Y-139643571D01*
X76718390Y-139643571D02*
X76670771Y-139729286D01*
X76670771Y-139729286D02*
X76670771Y-139943571D01*
X76670771Y-139943571D02*
X76718390Y-140029286D01*
X76718390Y-140029286D02*
X76766009Y-140072143D01*
X76766009Y-140072143D02*
X76861247Y-140115000D01*
X76861247Y-140115000D02*
X77099342Y-140115000D01*
X77099342Y-140115000D02*
X77194580Y-140072143D01*
X77194580Y-140072143D02*
X77242200Y-140029286D01*
X77242200Y-140029286D02*
X77289819Y-139943571D01*
X77289819Y-139943571D02*
X77289819Y-139729286D01*
X77289819Y-139729286D02*
X77242200Y-139643571D01*
X77242200Y-139643571D02*
X77194580Y-139600714D01*
X104229819Y-137565000D02*
X104467914Y-137565000D01*
X104372676Y-137398334D02*
X104467914Y-137565000D01*
X104467914Y-137565000D02*
X104372676Y-137731667D01*
X104658390Y-137465000D02*
X104467914Y-137565000D01*
X104467914Y-137565000D02*
X104658390Y-137665000D01*
X104229819Y-137931667D02*
X105229819Y-138098333D01*
X105229819Y-138098333D02*
X104515533Y-138231667D01*
X104515533Y-138231667D02*
X105229819Y-138365000D01*
X105229819Y-138365000D02*
X104229819Y-138531667D01*
X104944104Y-138765000D02*
X104944104Y-139098333D01*
X105229819Y-138698333D02*
X104229819Y-138931667D01*
X104229819Y-138931667D02*
X105229819Y-139165000D01*
X105229819Y-139398333D02*
X104229819Y-139398333D01*
X104229819Y-139631666D02*
X104229819Y-140031666D01*
X105229819Y-139831666D02*
X104229819Y-139831666D01*
X104182200Y-140764999D02*
X105467914Y-140164999D01*
X119469819Y-137960237D02*
X119707914Y-137960237D01*
X119612676Y-137769761D02*
X119707914Y-137960237D01*
X119707914Y-137960237D02*
X119612676Y-138150714D01*
X119898390Y-137845952D02*
X119707914Y-137960237D01*
X119707914Y-137960237D02*
X119898390Y-138074523D01*
X120184104Y-138417380D02*
X120184104Y-138798333D01*
X120469819Y-138341190D02*
X119469819Y-138607857D01*
X119469819Y-138607857D02*
X120469819Y-138874523D01*
X120469819Y-139560237D02*
X120469819Y-139103094D01*
X120469819Y-139331666D02*
X119469819Y-139331666D01*
X119469819Y-139331666D02*
X119612676Y-139255475D01*
X119612676Y-139255475D02*
X119707914Y-139179285D01*
X119707914Y-139179285D02*
X119755533Y-139103094D01*
X119469819Y-140055476D02*
X119469819Y-140131666D01*
X119469819Y-140131666D02*
X119517438Y-140207857D01*
X119517438Y-140207857D02*
X119565057Y-140245952D01*
X119565057Y-140245952D02*
X119660295Y-140284047D01*
X119660295Y-140284047D02*
X119850771Y-140322142D01*
X119850771Y-140322142D02*
X120088866Y-140322142D01*
X120088866Y-140322142D02*
X120279342Y-140284047D01*
X120279342Y-140284047D02*
X120374580Y-140245952D01*
X120374580Y-140245952D02*
X120422200Y-140207857D01*
X120422200Y-140207857D02*
X120469819Y-140131666D01*
X120469819Y-140131666D02*
X120469819Y-140055476D01*
X120469819Y-140055476D02*
X120422200Y-139979285D01*
X120422200Y-139979285D02*
X120374580Y-139941190D01*
X120374580Y-139941190D02*
X120279342Y-139903095D01*
X120279342Y-139903095D02*
X120088866Y-139864999D01*
X120088866Y-139864999D02*
X119850771Y-139864999D01*
X119850771Y-139864999D02*
X119660295Y-139903095D01*
X119660295Y-139903095D02*
X119565057Y-139941190D01*
X119565057Y-139941190D02*
X119517438Y-139979285D01*
X119517438Y-139979285D02*
X119469819Y-140055476D01*
X107366666Y-135659580D02*
X107414285Y-135707200D01*
X107414285Y-135707200D02*
X107557142Y-135754819D01*
X107557142Y-135754819D02*
X107652380Y-135754819D01*
X107652380Y-135754819D02*
X107795237Y-135707200D01*
X107795237Y-135707200D02*
X107890475Y-135611961D01*
X107890475Y-135611961D02*
X107938094Y-135516723D01*
X107938094Y-135516723D02*
X107985713Y-135326247D01*
X107985713Y-135326247D02*
X107985713Y-135183390D01*
X107985713Y-135183390D02*
X107938094Y-134992914D01*
X107938094Y-134992914D02*
X107890475Y-134897676D01*
X107890475Y-134897676D02*
X107795237Y-134802438D01*
X107795237Y-134802438D02*
X107652380Y-134754819D01*
X107652380Y-134754819D02*
X107557142Y-134754819D01*
X107557142Y-134754819D02*
X107414285Y-134802438D01*
X107414285Y-134802438D02*
X107366666Y-134850057D01*
X107033332Y-134754819D02*
X106366666Y-134754819D01*
X106366666Y-134754819D02*
X106795237Y-135754819D01*
X91261904Y-120154819D02*
X91261904Y-120964342D01*
X91261904Y-120964342D02*
X91214285Y-121059580D01*
X91214285Y-121059580D02*
X91166666Y-121107200D01*
X91166666Y-121107200D02*
X91071428Y-121154819D01*
X91071428Y-121154819D02*
X90880952Y-121154819D01*
X90880952Y-121154819D02*
X90785714Y-121107200D01*
X90785714Y-121107200D02*
X90738095Y-121059580D01*
X90738095Y-121059580D02*
X90690476Y-120964342D01*
X90690476Y-120964342D02*
X90690476Y-120154819D01*
X90309523Y-120154819D02*
X89690476Y-120154819D01*
X89690476Y-120154819D02*
X90023809Y-120535771D01*
X90023809Y-120535771D02*
X89880952Y-120535771D01*
X89880952Y-120535771D02*
X89785714Y-120583390D01*
X89785714Y-120583390D02*
X89738095Y-120631009D01*
X89738095Y-120631009D02*
X89690476Y-120726247D01*
X89690476Y-120726247D02*
X89690476Y-120964342D01*
X89690476Y-120964342D02*
X89738095Y-121059580D01*
X89738095Y-121059580D02*
X89785714Y-121107200D01*
X89785714Y-121107200D02*
X89880952Y-121154819D01*
X89880952Y-121154819D02*
X90166666Y-121154819D01*
X90166666Y-121154819D02*
X90261904Y-121107200D01*
X90261904Y-121107200D02*
X90309523Y-121059580D01*
X81609580Y-115933333D02*
X81657200Y-115885714D01*
X81657200Y-115885714D02*
X81704819Y-115742857D01*
X81704819Y-115742857D02*
X81704819Y-115647619D01*
X81704819Y-115647619D02*
X81657200Y-115504762D01*
X81657200Y-115504762D02*
X81561961Y-115409524D01*
X81561961Y-115409524D02*
X81466723Y-115361905D01*
X81466723Y-115361905D02*
X81276247Y-115314286D01*
X81276247Y-115314286D02*
X81133390Y-115314286D01*
X81133390Y-115314286D02*
X80942914Y-115361905D01*
X80942914Y-115361905D02*
X80847676Y-115409524D01*
X80847676Y-115409524D02*
X80752438Y-115504762D01*
X80752438Y-115504762D02*
X80704819Y-115647619D01*
X80704819Y-115647619D02*
X80704819Y-115742857D01*
X80704819Y-115742857D02*
X80752438Y-115885714D01*
X80752438Y-115885714D02*
X80800057Y-115933333D01*
X81704819Y-116409524D02*
X81704819Y-116600000D01*
X81704819Y-116600000D02*
X81657200Y-116695238D01*
X81657200Y-116695238D02*
X81609580Y-116742857D01*
X81609580Y-116742857D02*
X81466723Y-116838095D01*
X81466723Y-116838095D02*
X81276247Y-116885714D01*
X81276247Y-116885714D02*
X80895295Y-116885714D01*
X80895295Y-116885714D02*
X80800057Y-116838095D01*
X80800057Y-116838095D02*
X80752438Y-116790476D01*
X80752438Y-116790476D02*
X80704819Y-116695238D01*
X80704819Y-116695238D02*
X80704819Y-116504762D01*
X80704819Y-116504762D02*
X80752438Y-116409524D01*
X80752438Y-116409524D02*
X80800057Y-116361905D01*
X80800057Y-116361905D02*
X80895295Y-116314286D01*
X80895295Y-116314286D02*
X81133390Y-116314286D01*
X81133390Y-116314286D02*
X81228628Y-116361905D01*
X81228628Y-116361905D02*
X81276247Y-116409524D01*
X81276247Y-116409524D02*
X81323866Y-116504762D01*
X81323866Y-116504762D02*
X81323866Y-116695238D01*
X81323866Y-116695238D02*
X81276247Y-116790476D01*
X81276247Y-116790476D02*
X81228628Y-116838095D01*
X81228628Y-116838095D02*
X81133390Y-116885714D01*
X99309580Y-128752083D02*
X99357200Y-128704464D01*
X99357200Y-128704464D02*
X99404819Y-128561607D01*
X99404819Y-128561607D02*
X99404819Y-128466369D01*
X99404819Y-128466369D02*
X99357200Y-128323512D01*
X99357200Y-128323512D02*
X99261961Y-128228274D01*
X99261961Y-128228274D02*
X99166723Y-128180655D01*
X99166723Y-128180655D02*
X98976247Y-128133036D01*
X98976247Y-128133036D02*
X98833390Y-128133036D01*
X98833390Y-128133036D02*
X98642914Y-128180655D01*
X98642914Y-128180655D02*
X98547676Y-128228274D01*
X98547676Y-128228274D02*
X98452438Y-128323512D01*
X98452438Y-128323512D02*
X98404819Y-128466369D01*
X98404819Y-128466369D02*
X98404819Y-128561607D01*
X98404819Y-128561607D02*
X98452438Y-128704464D01*
X98452438Y-128704464D02*
X98500057Y-128752083D01*
X98833390Y-129323512D02*
X98785771Y-129228274D01*
X98785771Y-129228274D02*
X98738152Y-129180655D01*
X98738152Y-129180655D02*
X98642914Y-129133036D01*
X98642914Y-129133036D02*
X98595295Y-129133036D01*
X98595295Y-129133036D02*
X98500057Y-129180655D01*
X98500057Y-129180655D02*
X98452438Y-129228274D01*
X98452438Y-129228274D02*
X98404819Y-129323512D01*
X98404819Y-129323512D02*
X98404819Y-129513988D01*
X98404819Y-129513988D02*
X98452438Y-129609226D01*
X98452438Y-129609226D02*
X98500057Y-129656845D01*
X98500057Y-129656845D02*
X98595295Y-129704464D01*
X98595295Y-129704464D02*
X98642914Y-129704464D01*
X98642914Y-129704464D02*
X98738152Y-129656845D01*
X98738152Y-129656845D02*
X98785771Y-129609226D01*
X98785771Y-129609226D02*
X98833390Y-129513988D01*
X98833390Y-129513988D02*
X98833390Y-129323512D01*
X98833390Y-129323512D02*
X98881009Y-129228274D01*
X98881009Y-129228274D02*
X98928628Y-129180655D01*
X98928628Y-129180655D02*
X99023866Y-129133036D01*
X99023866Y-129133036D02*
X99214342Y-129133036D01*
X99214342Y-129133036D02*
X99309580Y-129180655D01*
X99309580Y-129180655D02*
X99357200Y-129228274D01*
X99357200Y-129228274D02*
X99404819Y-129323512D01*
X99404819Y-129323512D02*
X99404819Y-129513988D01*
X99404819Y-129513988D02*
X99357200Y-129609226D01*
X99357200Y-129609226D02*
X99309580Y-129656845D01*
X99309580Y-129656845D02*
X99214342Y-129704464D01*
X99214342Y-129704464D02*
X99023866Y-129704464D01*
X99023866Y-129704464D02*
X98928628Y-129656845D01*
X98928628Y-129656845D02*
X98881009Y-129609226D01*
X98881009Y-129609226D02*
X98833390Y-129513988D01*
X95109580Y-115375892D02*
X95157200Y-115328273D01*
X95157200Y-115328273D02*
X95204819Y-115185416D01*
X95204819Y-115185416D02*
X95204819Y-115090178D01*
X95204819Y-115090178D02*
X95157200Y-114947321D01*
X95157200Y-114947321D02*
X95061961Y-114852083D01*
X95061961Y-114852083D02*
X94966723Y-114804464D01*
X94966723Y-114804464D02*
X94776247Y-114756845D01*
X94776247Y-114756845D02*
X94633390Y-114756845D01*
X94633390Y-114756845D02*
X94442914Y-114804464D01*
X94442914Y-114804464D02*
X94347676Y-114852083D01*
X94347676Y-114852083D02*
X94252438Y-114947321D01*
X94252438Y-114947321D02*
X94204819Y-115090178D01*
X94204819Y-115090178D02*
X94204819Y-115185416D01*
X94204819Y-115185416D02*
X94252438Y-115328273D01*
X94252438Y-115328273D02*
X94300057Y-115375892D01*
X95204819Y-116328273D02*
X95204819Y-115756845D01*
X95204819Y-116042559D02*
X94204819Y-116042559D01*
X94204819Y-116042559D02*
X94347676Y-115947321D01*
X94347676Y-115947321D02*
X94442914Y-115852083D01*
X94442914Y-115852083D02*
X94490533Y-115756845D01*
X94204819Y-116947321D02*
X94204819Y-117042559D01*
X94204819Y-117042559D02*
X94252438Y-117137797D01*
X94252438Y-117137797D02*
X94300057Y-117185416D01*
X94300057Y-117185416D02*
X94395295Y-117233035D01*
X94395295Y-117233035D02*
X94585771Y-117280654D01*
X94585771Y-117280654D02*
X94823866Y-117280654D01*
X94823866Y-117280654D02*
X95014342Y-117233035D01*
X95014342Y-117233035D02*
X95109580Y-117185416D01*
X95109580Y-117185416D02*
X95157200Y-117137797D01*
X95157200Y-117137797D02*
X95204819Y-117042559D01*
X95204819Y-117042559D02*
X95204819Y-116947321D01*
X95204819Y-116947321D02*
X95157200Y-116852083D01*
X95157200Y-116852083D02*
X95109580Y-116804464D01*
X95109580Y-116804464D02*
X95014342Y-116756845D01*
X95014342Y-116756845D02*
X94823866Y-116709226D01*
X94823866Y-116709226D02*
X94585771Y-116709226D01*
X94585771Y-116709226D02*
X94395295Y-116756845D01*
X94395295Y-116756845D02*
X94300057Y-116804464D01*
X94300057Y-116804464D02*
X94252438Y-116852083D01*
X94252438Y-116852083D02*
X94204819Y-116947321D01*
X126009580Y-122452083D02*
X126057200Y-122404464D01*
X126057200Y-122404464D02*
X126104819Y-122261607D01*
X126104819Y-122261607D02*
X126104819Y-122166369D01*
X126104819Y-122166369D02*
X126057200Y-122023512D01*
X126057200Y-122023512D02*
X125961961Y-121928274D01*
X125961961Y-121928274D02*
X125866723Y-121880655D01*
X125866723Y-121880655D02*
X125676247Y-121833036D01*
X125676247Y-121833036D02*
X125533390Y-121833036D01*
X125533390Y-121833036D02*
X125342914Y-121880655D01*
X125342914Y-121880655D02*
X125247676Y-121928274D01*
X125247676Y-121928274D02*
X125152438Y-122023512D01*
X125152438Y-122023512D02*
X125104819Y-122166369D01*
X125104819Y-122166369D02*
X125104819Y-122261607D01*
X125104819Y-122261607D02*
X125152438Y-122404464D01*
X125152438Y-122404464D02*
X125200057Y-122452083D01*
X125104819Y-123356845D02*
X125104819Y-122880655D01*
X125104819Y-122880655D02*
X125581009Y-122833036D01*
X125581009Y-122833036D02*
X125533390Y-122880655D01*
X125533390Y-122880655D02*
X125485771Y-122975893D01*
X125485771Y-122975893D02*
X125485771Y-123213988D01*
X125485771Y-123213988D02*
X125533390Y-123309226D01*
X125533390Y-123309226D02*
X125581009Y-123356845D01*
X125581009Y-123356845D02*
X125676247Y-123404464D01*
X125676247Y-123404464D02*
X125914342Y-123404464D01*
X125914342Y-123404464D02*
X126009580Y-123356845D01*
X126009580Y-123356845D02*
X126057200Y-123309226D01*
X126057200Y-123309226D02*
X126104819Y-123213988D01*
X126104819Y-123213988D02*
X126104819Y-122975893D01*
X126104819Y-122975893D02*
X126057200Y-122880655D01*
X126057200Y-122880655D02*
X126009580Y-122833036D01*
X110566666Y-112659580D02*
X110614285Y-112707200D01*
X110614285Y-112707200D02*
X110757142Y-112754819D01*
X110757142Y-112754819D02*
X110852380Y-112754819D01*
X110852380Y-112754819D02*
X110995237Y-112707200D01*
X110995237Y-112707200D02*
X111090475Y-112611961D01*
X111090475Y-112611961D02*
X111138094Y-112516723D01*
X111138094Y-112516723D02*
X111185713Y-112326247D01*
X111185713Y-112326247D02*
X111185713Y-112183390D01*
X111185713Y-112183390D02*
X111138094Y-111992914D01*
X111138094Y-111992914D02*
X111090475Y-111897676D01*
X111090475Y-111897676D02*
X110995237Y-111802438D01*
X110995237Y-111802438D02*
X110852380Y-111754819D01*
X110852380Y-111754819D02*
X110757142Y-111754819D01*
X110757142Y-111754819D02*
X110614285Y-111802438D01*
X110614285Y-111802438D02*
X110566666Y-111850057D01*
X109709523Y-111754819D02*
X109899999Y-111754819D01*
X109899999Y-111754819D02*
X109995237Y-111802438D01*
X109995237Y-111802438D02*
X110042856Y-111850057D01*
X110042856Y-111850057D02*
X110138094Y-111992914D01*
X110138094Y-111992914D02*
X110185713Y-112183390D01*
X110185713Y-112183390D02*
X110185713Y-112564342D01*
X110185713Y-112564342D02*
X110138094Y-112659580D01*
X110138094Y-112659580D02*
X110090475Y-112707200D01*
X110090475Y-112707200D02*
X109995237Y-112754819D01*
X109995237Y-112754819D02*
X109804761Y-112754819D01*
X109804761Y-112754819D02*
X109709523Y-112707200D01*
X109709523Y-112707200D02*
X109661904Y-112659580D01*
X109661904Y-112659580D02*
X109614285Y-112564342D01*
X109614285Y-112564342D02*
X109614285Y-112326247D01*
X109614285Y-112326247D02*
X109661904Y-112231009D01*
X109661904Y-112231009D02*
X109709523Y-112183390D01*
X109709523Y-112183390D02*
X109804761Y-112135771D01*
X109804761Y-112135771D02*
X109995237Y-112135771D01*
X109995237Y-112135771D02*
X110090475Y-112183390D01*
X110090475Y-112183390D02*
X110138094Y-112231009D01*
X110138094Y-112231009D02*
X110185713Y-112326247D01*
D12*
X110188748Y-134408750D02*
X111611252Y-134408750D01*
X110188748Y-136228750D02*
X111611252Y-136228750D01*
X93910000Y-119718750D02*
X93910000Y-113708750D01*
X87090000Y-117468750D02*
X87090000Y-113708750D01*
X87090000Y-113708750D02*
X88350000Y-113708750D01*
X93910000Y-113708750D02*
X92650000Y-113708750D01*
X85510000Y-112165000D02*
X85510000Y-119100000D01*
X82090000Y-112165000D02*
X85510000Y-112165000D01*
X82090000Y-119100000D02*
X82090000Y-112165000D01*
X101710000Y-128207498D02*
X101710000Y-129630002D01*
X99890000Y-128207498D02*
X99890000Y-129630002D01*
X99010000Y-112083750D02*
X99010000Y-119018750D01*
X95590000Y-112083750D02*
X99010000Y-112083750D01*
X95590000Y-119018750D02*
X95590000Y-112083750D01*
X122890000Y-123330002D02*
X122890000Y-121907498D01*
X124710000Y-123330002D02*
X124710000Y-121907498D01*
X113488748Y-111408750D02*
X114911252Y-111408750D01*
X113488748Y-113228750D02*
X114911252Y-113228750D01*
%LPC*%
D10*
X132200000Y-150000000D02*
X51800000Y-150000000D01*
X51800000Y-142000000D01*
X132200000Y-142000000D01*
X132200000Y-150000000D01*
G36*
X132200000Y-150000000D02*
G01*
X51800000Y-150000000D01*
X51800000Y-142000000D01*
X132200000Y-142000000D01*
X132200000Y-150000000D01*
G37*
D13*
X51300000Y-128100000D03*
D14*
X51300000Y-125500000D03*
X51300000Y-130200000D03*
X51300000Y-123400000D03*
X54100000Y-130200000D03*
X54100000Y-123400000D03*
D15*
X48450000Y-119950000D03*
D16*
X47650000Y-126800000D03*
D15*
X48450000Y-133650000D03*
D17*
X58340000Y-112900000D03*
D18*
X55800000Y-112900000D03*
X53260000Y-112900000D03*
X50720000Y-112900000D03*
D19*
X113570000Y-117468750D03*
D20*
X111030000Y-114928750D03*
X111030000Y-117468750D03*
X108490000Y-114928750D03*
X108490000Y-117468750D03*
X105950000Y-114928750D03*
X103410000Y-117468750D03*
X105950000Y-117468750D03*
X103410000Y-120008750D03*
X105950000Y-120008750D03*
X103410000Y-122548750D03*
X105950000Y-122548750D03*
X103410000Y-125088750D03*
X105950000Y-125088750D03*
X103410000Y-127628750D03*
X105950000Y-127628750D03*
X103410000Y-130168750D03*
X105950000Y-132708750D03*
X105950000Y-130168750D03*
X108490000Y-132708750D03*
X108490000Y-130168750D03*
X111030000Y-132708750D03*
X111030000Y-130168750D03*
X113570000Y-132708750D03*
X113570000Y-130168750D03*
X116110000Y-132708750D03*
X116110000Y-130168750D03*
X118650000Y-132708750D03*
X121190000Y-130168750D03*
X118650000Y-130168750D03*
X121190000Y-127628750D03*
X118650000Y-127628750D03*
X121190000Y-125088750D03*
X118650000Y-125088750D03*
X121190000Y-122548750D03*
X118650000Y-122548750D03*
X121190000Y-120008750D03*
X118650000Y-120008750D03*
X121190000Y-117468750D03*
X118650000Y-114928750D03*
X118650000Y-117468750D03*
X116110000Y-114928750D03*
X116110000Y-117468750D03*
X113570000Y-114928750D03*
D17*
X64025000Y-118575000D03*
D18*
X64025000Y-116035000D03*
X66565000Y-118575000D03*
X66565000Y-116035000D03*
X69105000Y-118575000D03*
X69105000Y-116035000D03*
D21*
X135060000Y-117258750D03*
D22*
X137600000Y-117258750D03*
X135060000Y-119798750D03*
X137600000Y-119798750D03*
X135060000Y-122338750D03*
X137600000Y-122338750D03*
X135060000Y-124878750D03*
X137600000Y-124878750D03*
X135060000Y-127418750D03*
X137600000Y-127418750D03*
D23*
X109337500Y-135318750D03*
X112462500Y-135318750D03*
D24*
X92800000Y-118768750D03*
X90500000Y-118768750D03*
D25*
X90500000Y-112468750D03*
D24*
X88200000Y-118768750D03*
D26*
X83800000Y-113550000D03*
X83800000Y-118650000D03*
D27*
X100800000Y-127356250D03*
X100800000Y-130481250D03*
D26*
X97300000Y-113468750D03*
X97300000Y-118568750D03*
D28*
X123800000Y-124181250D03*
X123800000Y-121056250D03*
D23*
X112637500Y-112318750D03*
X115762500Y-112318750D03*
D29*
X53975000Y-145034000D03*
X56515000Y-145034000D03*
X59055000Y-145034000D03*
X61595000Y-145034000D03*
X64135000Y-145034000D03*
X66675000Y-145034000D03*
X69215000Y-145034000D03*
X71755000Y-145034000D03*
X74295000Y-145034000D03*
X76835000Y-145034000D03*
X79375000Y-145034000D03*
X81915000Y-145034000D03*
X84455000Y-145034000D03*
X86995000Y-145034000D03*
X89535000Y-145034000D03*
X92075000Y-145034000D03*
X94615000Y-145034000D03*
X97155000Y-145034000D03*
X99695000Y-145034000D03*
X102235000Y-145034000D03*
X104775000Y-145034000D03*
X107315000Y-145034000D03*
X109855000Y-145034000D03*
X112395000Y-145034000D03*
X114935000Y-145034000D03*
X117475000Y-145034000D03*
X120015000Y-145034000D03*
X122555000Y-145034000D03*
X125095000Y-145034000D03*
X127635000Y-145034000D03*
%LPD*%
M02*
