G04 #@! TF.GenerationSoftware,KiCad,Pcbnew,7.0.10-148-g62bb553460*
G04 #@! TF.CreationDate,2024-11-24T17:13:43+03:00*
G04 #@! TF.ProjectId,ZX_BUS_Mouse,5a585f42-5553-45f4-9d6f-7573652e6b69,rev?*
G04 #@! TF.SameCoordinates,Original*
G04 #@! TF.FileFunction,Copper,L1,Top*
G04 #@! TF.FilePolarity,Positive*
%FSLAX46Y46*%
G04 Gerber Fmt 4.6, Leading zero omitted, Abs format (unit mm)*
G04 Created by KiCad (PCBNEW 7.0.10-148-g62bb553460) date 2024-11-24 17:13:43*
%MOMM*%
%LPD*%
G01*
G04 APERTURE LIST*
G04 Aperture macros list*
%AMRoundRect*
0 Rectangle with rounded corners*
0 $1 Rounding radius*
0 $2 $3 $4 $5 $6 $7 $8 $9 X,Y pos of 4 corners*
0 Add a 4 corners polygon primitive as box body*
4,1,4,$2,$3,$4,$5,$6,$7,$8,$9,$2,$3,0*
0 Add four circle primitives for the rounded corners*
1,1,$1+$1,$2,$3*
1,1,$1+$1,$4,$5*
1,1,$1+$1,$6,$7*
1,1,$1+$1,$8,$9*
0 Add four rect primitives between the rounded corners*
20,1,$1+$1,$2,$3,$4,$5,0*
20,1,$1+$1,$4,$5,$6,$7,0*
20,1,$1+$1,$6,$7,$8,$9,0*
20,1,$1+$1,$8,$9,$2,$3,0*%
G04 Aperture macros list end*
G04 #@! TA.AperFunction,SMDPad,CuDef*
%ADD10RoundRect,0.250000X0.650000X-0.412500X0.650000X0.412500X-0.650000X0.412500X-0.650000X-0.412500X0*%
G04 #@! TD*
G04 #@! TA.AperFunction,ComponentPad*
%ADD11R,1.700000X1.700000*%
G04 #@! TD*
G04 #@! TA.AperFunction,ComponentPad*
%ADD12O,1.700000X1.700000*%
G04 #@! TD*
G04 #@! TA.AperFunction,SMDPad,CuDef*
%ADD13RoundRect,0.250000X-0.400000X-0.625000X0.400000X-0.625000X0.400000X0.625000X-0.400000X0.625000X0*%
G04 #@! TD*
G04 #@! TA.AperFunction,SMDPad,CuDef*
%ADD14R,1.560000X0.650000*%
G04 #@! TD*
G04 #@! TA.AperFunction,SMDPad,CuDef*
%ADD15RoundRect,0.250000X-0.625000X0.400000X-0.625000X-0.400000X0.625000X-0.400000X0.625000X0.400000X0*%
G04 #@! TD*
G04 #@! TA.AperFunction,SMDPad,CuDef*
%ADD16RoundRect,0.425000X0.425000X-3.575000X0.425000X3.575000X-0.425000X3.575000X-0.425000X-3.575000X0*%
G04 #@! TD*
G04 #@! TA.AperFunction,ComponentPad*
%ADD17R,1.600000X1.600000*%
G04 #@! TD*
G04 #@! TA.AperFunction,ComponentPad*
%ADD18C,1.600000*%
G04 #@! TD*
G04 #@! TA.AperFunction,ComponentPad*
%ADD19O,3.500000X2.000000*%
G04 #@! TD*
G04 #@! TA.AperFunction,ComponentPad*
%ADD20O,2.000000X4.000000*%
G04 #@! TD*
G04 #@! TA.AperFunction,SMDPad,CuDef*
%ADD21RoundRect,0.250000X-0.650000X0.412500X-0.650000X-0.412500X0.650000X-0.412500X0.650000X0.412500X0*%
G04 #@! TD*
G04 #@! TA.AperFunction,ComponentPad*
%ADD22R,1.422400X1.422400*%
G04 #@! TD*
G04 #@! TA.AperFunction,ComponentPad*
%ADD23C,1.422400*%
G04 #@! TD*
G04 #@! TA.AperFunction,SMDPad,CuDef*
%ADD24R,1.600000X0.550000*%
G04 #@! TD*
G04 #@! TA.AperFunction,SMDPad,CuDef*
%ADD25R,0.550000X1.600000*%
G04 #@! TD*
G04 #@! TA.AperFunction,SMDPad,CuDef*
%ADD26RoundRect,0.250000X0.625000X-0.400000X0.625000X0.400000X-0.625000X0.400000X-0.625000X-0.400000X0*%
G04 #@! TD*
G04 #@! TA.AperFunction,ComponentPad*
%ADD27RoundRect,0.250000X-0.600000X-0.600000X0.600000X-0.600000X0.600000X0.600000X-0.600000X0.600000X0*%
G04 #@! TD*
G04 #@! TA.AperFunction,ComponentPad*
%ADD28C,1.700000*%
G04 #@! TD*
G04 #@! TA.AperFunction,ViaPad*
%ADD29C,0.800000*%
G04 #@! TD*
G04 #@! TA.AperFunction,Conductor*
%ADD30C,1.000000*%
G04 #@! TD*
G04 #@! TA.AperFunction,Conductor*
%ADD31C,0.600000*%
G04 #@! TD*
G04 #@! TA.AperFunction,Conductor*
%ADD32C,0.400000*%
G04 #@! TD*
G04 #@! TA.AperFunction,Conductor*
%ADD33C,0.500000*%
G04 #@! TD*
G04 #@! TA.AperFunction,Conductor*
%ADD34C,0.200000*%
G04 #@! TD*
G04 #@! TA.AperFunction,Conductor*
%ADD35C,0.250000*%
G04 #@! TD*
G04 APERTURE END LIST*
D10*
X62700000Y-133962500D03*
X62700000Y-130837500D03*
D11*
X76325000Y-123800000D03*
D12*
X78865000Y-123800000D03*
D10*
X62700000Y-127950000D03*
X62700000Y-124825000D03*
D13*
X126450000Y-120700000D03*
X129550000Y-120700000D03*
D11*
X57400000Y-113360000D03*
D12*
X57400000Y-115900000D03*
X54860000Y-113360000D03*
X54860000Y-115900000D03*
X52320000Y-113360000D03*
X52320000Y-115900000D03*
X49780000Y-113360000D03*
X49780000Y-115900000D03*
D14*
X95150000Y-136350000D03*
X95150000Y-135400000D03*
X95150000Y-134450000D03*
X92450000Y-134450000D03*
X92450000Y-136350000D03*
D15*
X59000000Y-130900000D03*
X59000000Y-134000000D03*
D16*
X53975000Y-145034000D03*
X56515000Y-145034000D03*
X59055000Y-145034000D03*
X61595000Y-145034000D03*
X64135000Y-145034000D03*
X66675000Y-145034000D03*
X69215000Y-145034000D03*
X71755000Y-145034000D03*
X74295000Y-145034000D03*
X76835000Y-145034000D03*
X79375000Y-145034000D03*
X81915000Y-145034000D03*
X84455000Y-145034000D03*
X86995000Y-145034000D03*
X89535000Y-145034000D03*
X92075000Y-145034000D03*
X94615000Y-145034000D03*
X97155000Y-145034000D03*
X99695000Y-145034000D03*
X102235000Y-145034000D03*
X104775000Y-145034000D03*
X107315000Y-145034000D03*
X109855000Y-145034000D03*
X112395000Y-145034000D03*
X114935000Y-145034000D03*
X117475000Y-145034000D03*
X120015000Y-145034000D03*
X122555000Y-145034000D03*
X125095000Y-145034000D03*
X127635000Y-145034000D03*
D10*
X79400000Y-131425000D03*
X79400000Y-128300000D03*
D17*
X51300000Y-128100000D03*
D18*
X51300000Y-125500000D03*
X51300000Y-130200000D03*
X51300000Y-123400000D03*
X54100000Y-130200000D03*
X54100000Y-123400000D03*
D19*
X48450000Y-119950000D03*
D20*
X47650000Y-126800000D03*
D19*
X48450000Y-133650000D03*
D11*
X79500000Y-112900000D03*
D12*
X76960000Y-112900000D03*
X74420000Y-112900000D03*
X71880000Y-112900000D03*
D13*
X126450000Y-124218750D03*
X129550000Y-124218750D03*
D21*
X72600000Y-115737500D03*
X72600000Y-118862500D03*
D22*
X113570000Y-117468750D03*
D23*
X111030000Y-114928750D03*
X111030000Y-117468750D03*
X108490000Y-114928750D03*
X108490000Y-117468750D03*
X105950000Y-114928750D03*
X103410000Y-117468750D03*
X105950000Y-117468750D03*
X103410000Y-120008750D03*
X105950000Y-120008750D03*
X103410000Y-122548750D03*
X105950000Y-122548750D03*
X103410000Y-125088750D03*
X105950000Y-125088750D03*
X103410000Y-127628750D03*
X105950000Y-127628750D03*
X103410000Y-130168750D03*
X105950000Y-132708750D03*
X105950000Y-130168750D03*
X108490000Y-132708750D03*
X108490000Y-130168750D03*
X111030000Y-132708750D03*
X111030000Y-130168750D03*
X113570000Y-132708750D03*
X113570000Y-130168750D03*
X116110000Y-132708750D03*
X116110000Y-130168750D03*
X118650000Y-132708750D03*
X121190000Y-130168750D03*
X118650000Y-130168750D03*
X121190000Y-127628750D03*
X118650000Y-127628750D03*
X121190000Y-125088750D03*
X118650000Y-125088750D03*
X121190000Y-122548750D03*
X118650000Y-122548750D03*
X121190000Y-120008750D03*
X118650000Y-120008750D03*
X121190000Y-117468750D03*
X118650000Y-114928750D03*
X118650000Y-117468750D03*
X116110000Y-114928750D03*
X116110000Y-117468750D03*
X113570000Y-114928750D03*
D11*
X64025000Y-118575000D03*
D12*
X64025000Y-116035000D03*
X66565000Y-118575000D03*
X66565000Y-116035000D03*
X69105000Y-118575000D03*
X69105000Y-116035000D03*
D24*
X66850000Y-126600000D03*
X66850000Y-127400000D03*
X66850000Y-128200000D03*
X66850000Y-129000000D03*
X66850000Y-129800000D03*
X66850000Y-130600000D03*
X66850000Y-131400000D03*
X66850000Y-132200000D03*
D25*
X68300000Y-133650000D03*
X69100000Y-133650000D03*
X69900000Y-133650000D03*
X70700000Y-133650000D03*
X71500000Y-133650000D03*
X72300000Y-133650000D03*
X73100000Y-133650000D03*
X73900000Y-133650000D03*
D24*
X75350000Y-132200000D03*
X75350000Y-131400000D03*
X75350000Y-130600000D03*
X75350000Y-129800000D03*
X75350000Y-129000000D03*
X75350000Y-128200000D03*
X75350000Y-127400000D03*
X75350000Y-126600000D03*
D25*
X73900000Y-125150000D03*
X73100000Y-125150000D03*
X72300000Y-125150000D03*
X71500000Y-125150000D03*
X70700000Y-125150000D03*
X69900000Y-125150000D03*
X69100000Y-125150000D03*
X68300000Y-125150000D03*
D13*
X126450000Y-127500000D03*
X129550000Y-127500000D03*
D15*
X76100000Y-115750000D03*
X76100000Y-118850000D03*
D13*
X126450000Y-117400000D03*
X129550000Y-117400000D03*
D26*
X59000000Y-127900000D03*
X59000000Y-124800000D03*
D27*
X135060000Y-117258750D03*
D28*
X137600000Y-117258750D03*
X135060000Y-119798750D03*
X137600000Y-119798750D03*
X135060000Y-122338750D03*
X137600000Y-122338750D03*
X135060000Y-124878750D03*
X137600000Y-124878750D03*
X135060000Y-127418750D03*
X137600000Y-127418750D03*
D29*
X81700000Y-128300000D03*
X115200000Y-135300000D03*
X133200000Y-127500000D03*
X60850000Y-130850000D03*
X100800000Y-133000000D03*
X60825000Y-124825000D03*
X97300000Y-133000000D03*
X115200000Y-138200000D03*
X74995000Y-140318750D03*
X77535000Y-140318750D03*
X84500000Y-140400000D03*
X106100000Y-139300000D03*
X116360660Y-139300000D03*
X59055000Y-129400000D03*
X90300000Y-136300000D03*
X59105000Y-136450000D03*
X77950000Y-115750000D03*
X83282844Y-130582844D03*
X59055000Y-123300000D03*
X132000000Y-124300000D03*
X132000000Y-120700000D03*
X132000000Y-117400000D03*
X67701125Y-123447541D03*
X70905025Y-130794975D03*
X73100000Y-130900000D03*
X69700000Y-123400000D03*
X71700000Y-131500000D03*
X68699997Y-123400000D03*
X72100000Y-127100000D03*
X73200000Y-128600000D03*
D30*
X60850000Y-130850000D02*
X62700000Y-130850000D01*
X97300000Y-133000000D02*
X100800000Y-133000000D01*
X129350000Y-138200000D02*
X135000000Y-138200000D01*
X139058750Y-117258750D02*
X137600000Y-117258750D01*
D31*
X79400000Y-128300000D02*
X77800000Y-128300000D01*
X70900000Y-115737500D02*
X72600000Y-115737500D01*
D32*
X129550000Y-127500000D02*
X133200000Y-127500000D01*
D30*
X127635000Y-145034000D02*
X127635000Y-139915000D01*
X140400000Y-132800000D02*
X140400000Y-118600000D01*
D31*
X69105000Y-116035000D02*
X70602500Y-116035000D01*
D30*
X137600000Y-127418750D02*
X140281250Y-127418750D01*
D31*
X64900000Y-129800000D02*
X66850000Y-129800000D01*
X66850000Y-128200000D02*
X65725000Y-128200000D01*
D30*
X127635000Y-139915000D02*
X129350000Y-138200000D01*
D31*
X65725000Y-128200000D02*
X64700000Y-127175000D01*
X62700000Y-130850000D02*
X63850000Y-130850000D01*
D33*
X97300000Y-133000000D02*
X95900000Y-133000000D01*
D31*
X64700000Y-127175000D02*
X64700000Y-125500000D01*
X63850000Y-130850000D02*
X64900000Y-129800000D01*
D33*
X95150000Y-133750000D02*
X95150000Y-134450000D01*
D30*
X115200000Y-135300000D02*
X115200000Y-138200000D01*
D33*
X95900000Y-133000000D02*
X95150000Y-133750000D01*
D31*
X70602500Y-116035000D02*
X70900000Y-115737500D01*
D30*
X60825000Y-124825000D02*
X62700000Y-124825000D01*
D31*
X77800000Y-128300000D02*
X77100000Y-129000000D01*
X64025000Y-124825000D02*
X62700000Y-124825000D01*
D30*
X79400000Y-128300000D02*
X81700000Y-128300000D01*
X140400000Y-118600000D02*
X139058750Y-117258750D01*
D31*
X64700000Y-125500000D02*
X64025000Y-124825000D01*
X77100000Y-129000000D02*
X75350000Y-129000000D01*
D30*
X135000000Y-138200000D02*
X140400000Y-132800000D01*
D34*
X70675000Y-118575000D02*
X70962500Y-118862500D01*
X69105000Y-118575000D02*
X70675000Y-118575000D01*
X70962500Y-118862500D02*
X72600000Y-118862500D01*
X72600000Y-118862500D02*
X75487500Y-118862500D01*
X70700000Y-122600000D02*
X69105000Y-121005000D01*
X69105000Y-121005000D02*
X69105000Y-118575000D01*
X70700000Y-125150000D02*
X70700000Y-122600000D01*
X93700000Y-128700000D02*
X104878750Y-128700000D01*
X76447055Y-139250002D02*
X78034557Y-137662500D01*
X78034557Y-137662500D02*
X84737500Y-137662500D01*
X75349998Y-139250002D02*
X76447055Y-139250002D01*
X104878750Y-128700000D02*
X105950000Y-127628750D01*
X74995000Y-140318750D02*
X74995000Y-139605000D01*
X84737500Y-137662500D02*
X93700000Y-128700000D01*
X74995000Y-139605000D02*
X75349998Y-139250002D01*
X78437500Y-138462500D02*
X85068872Y-138462500D01*
X77535000Y-140318750D02*
X77535000Y-139365000D01*
X92231372Y-131300000D02*
X104818750Y-131300000D01*
X85068872Y-138462500D02*
X92231372Y-131300000D01*
X104818750Y-131300000D02*
X105950000Y-130168750D01*
X77535000Y-139365000D02*
X78437500Y-138462500D01*
X85565930Y-139662500D02*
X90778430Y-134450000D01*
X90778430Y-134450000D02*
X92450000Y-134450000D01*
X85237500Y-139662500D02*
X85565930Y-139662500D01*
X84500000Y-140400000D02*
X85237500Y-139662500D01*
X116100000Y-138431371D02*
X116100000Y-132718750D01*
X106100000Y-139300000D02*
X115231371Y-139300000D01*
X115231371Y-139300000D02*
X116100000Y-138431371D01*
X116400000Y-139300000D02*
X117400000Y-138300000D01*
X116360660Y-139300000D02*
X116400000Y-139300000D01*
X117400000Y-138300000D02*
X117400000Y-131458750D01*
X117400000Y-131458750D02*
X116110000Y-130168750D01*
X77171814Y-135662500D02*
X83860046Y-135662500D01*
X59055000Y-145034000D02*
X59055000Y-138845000D01*
X75584314Y-137250000D02*
X77171814Y-135662500D01*
X83860046Y-135662500D02*
X99513796Y-120008750D01*
X59055000Y-138845000D02*
X60650000Y-137250000D01*
X60650000Y-137250000D02*
X75584314Y-137250000D01*
X99513796Y-120008750D02*
X103410000Y-120008750D01*
X75784312Y-137650002D02*
X77371814Y-136062500D01*
X66675000Y-138625000D02*
X67649998Y-137650002D01*
X104501250Y-121100000D02*
X105950000Y-122548750D01*
X67649998Y-137650002D02*
X75784312Y-137650002D01*
X77371814Y-136062500D02*
X84025732Y-136062500D01*
X66675000Y-145034000D02*
X66675000Y-138625000D01*
X98988232Y-121100000D02*
X104501250Y-121100000D01*
X84025732Y-136062500D02*
X98988232Y-121100000D01*
X75949998Y-138050002D02*
X77537500Y-136462500D01*
X69215000Y-145034000D02*
X69215000Y-138885000D01*
X84191418Y-136462500D02*
X98153918Y-122500000D01*
X70049998Y-138050002D02*
X75949998Y-138050002D01*
X77537500Y-136462500D02*
X84191418Y-136462500D01*
X69215000Y-138885000D02*
X70049998Y-138050002D01*
X98153918Y-122500000D02*
X103361250Y-122500000D01*
X104700000Y-125600000D02*
X104700000Y-124600000D01*
X104700000Y-124600000D02*
X105222450Y-124077550D01*
X71755000Y-139645000D02*
X72949998Y-138450002D01*
X84357104Y-136862500D02*
X95119604Y-126100000D01*
X76115684Y-138450002D02*
X77703186Y-136862500D01*
X105222450Y-124077550D02*
X120178800Y-124077550D01*
X120178800Y-124077550D02*
X121190000Y-125088750D01*
X77703186Y-136862500D02*
X84357104Y-136862500D01*
X104200000Y-126100000D02*
X104700000Y-125600000D01*
X71755000Y-145034000D02*
X71755000Y-139645000D01*
X72949998Y-138450002D02*
X76115684Y-138450002D01*
X95119604Y-126100000D02*
X104200000Y-126100000D01*
X84537500Y-137262500D02*
X95300000Y-126500000D01*
X95300000Y-126500000D02*
X104538750Y-126500000D01*
X74295000Y-145034000D02*
X74295000Y-139305000D01*
X77868872Y-137262500D02*
X84537500Y-137262500D01*
X76281370Y-138850002D02*
X77868872Y-137262500D01*
X74749998Y-138850002D02*
X76281370Y-138850002D01*
X74295000Y-139305000D02*
X74749998Y-138850002D01*
X104538750Y-126500000D02*
X105950000Y-125088750D01*
X93865686Y-129100000D02*
X107100000Y-129100000D01*
X84903186Y-138062500D02*
X93865686Y-129100000D01*
X76835000Y-145034000D02*
X76835000Y-139499314D01*
X111100000Y-125100000D02*
X118638750Y-125100000D01*
X107100000Y-129100000D02*
X111100000Y-125100000D01*
X76835000Y-139499314D02*
X78271814Y-138062500D01*
X78271814Y-138062500D02*
X84903186Y-138062500D01*
X79375000Y-140125000D02*
X80637500Y-138862500D01*
X80637500Y-138862500D02*
X85234558Y-138862500D01*
X85234558Y-138862500D02*
X92397058Y-131700000D01*
X104984435Y-131700000D02*
X104986885Y-131697550D01*
X104986885Y-131697550D02*
X106961200Y-131697550D01*
X106961200Y-131697550D02*
X108490000Y-130168750D01*
X79375000Y-145034000D02*
X79375000Y-140125000D01*
X92397058Y-131700000D02*
X104984435Y-131700000D01*
X85400244Y-139262500D02*
X92562744Y-132100000D01*
X81915000Y-145034000D02*
X81915000Y-140285000D01*
X105341250Y-132100000D02*
X105950000Y-132708750D01*
X92562744Y-132100000D02*
X105341250Y-132100000D01*
X81915000Y-140285000D02*
X82937500Y-139262500D01*
X82937500Y-139262500D02*
X85400244Y-139262500D01*
X113600000Y-137065685D02*
X113600000Y-132738750D01*
X96500000Y-137900000D02*
X112765685Y-137900000D01*
X94615000Y-145034000D02*
X94615000Y-139785000D01*
X94615000Y-139785000D02*
X96500000Y-137900000D01*
X112765685Y-137900000D02*
X113600000Y-137065685D01*
X99000000Y-138300000D02*
X112931371Y-138300000D01*
X112931371Y-138300000D02*
X114000000Y-137231370D01*
X114800000Y-133300000D02*
X114800000Y-131398750D01*
X114000000Y-134100000D02*
X114800000Y-133300000D01*
X114000000Y-137231370D02*
X114000000Y-134100000D01*
X97155000Y-145034000D02*
X97155000Y-140145000D01*
X114800000Y-131398750D02*
X113570000Y-130168750D01*
X97155000Y-140145000D02*
X99000000Y-138300000D01*
X116700000Y-140100000D02*
X118700000Y-138100000D01*
X113000000Y-140100000D02*
X116700000Y-140100000D01*
X112395000Y-145034000D02*
X112395000Y-140705000D01*
X112395000Y-140705000D02*
X113000000Y-140100000D01*
X118700000Y-138100000D02*
X118700000Y-132758750D01*
X117475000Y-139959314D02*
X121190000Y-136244314D01*
X121190000Y-136244314D02*
X121190000Y-130168750D01*
X117475000Y-145034000D02*
X117475000Y-139959314D01*
X120015000Y-137985000D02*
X123100000Y-134900000D01*
X120015000Y-145034000D02*
X120015000Y-137985000D01*
X123100000Y-129538750D02*
X121190000Y-127628750D01*
X123100000Y-134900000D02*
X123100000Y-129538750D01*
D35*
X93550000Y-136350000D02*
X93800000Y-136100000D01*
D31*
X59100000Y-136445000D02*
X59100000Y-134100000D01*
D35*
X94100000Y-135400000D02*
X95150000Y-135400000D01*
X92450000Y-136350000D02*
X93550000Y-136350000D01*
D31*
X59105000Y-136450000D02*
X59100000Y-136445000D01*
X62700000Y-133975000D02*
X63925000Y-133975000D01*
X77950000Y-115750000D02*
X76100000Y-115750000D01*
X65300000Y-129000000D02*
X66850000Y-129000000D01*
D30*
X59105000Y-136450000D02*
X62150000Y-136450000D01*
D31*
X64400000Y-133500000D02*
X64400000Y-131500000D01*
D33*
X92450000Y-136350000D02*
X90350000Y-136350000D01*
D35*
X93800000Y-136100000D02*
X93800000Y-135700000D01*
D31*
X64400000Y-131500000D02*
X65300000Y-130600000D01*
D35*
X93800000Y-135700000D02*
X94100000Y-135400000D01*
D31*
X79400000Y-131425000D02*
X75375000Y-131425000D01*
D30*
X82440688Y-131425000D02*
X83282844Y-130582844D01*
D31*
X63925000Y-133975000D02*
X64400000Y-133500000D01*
D30*
X59055000Y-129400000D02*
X62300000Y-129400000D01*
D31*
X62700000Y-127950000D02*
X64250000Y-127950000D01*
D32*
X75375000Y-131425000D02*
X75350000Y-131400000D01*
D31*
X65300000Y-130600000D02*
X66850000Y-130600000D01*
D30*
X62700000Y-129000000D02*
X62700000Y-127950000D01*
X62300000Y-129400000D02*
X62700000Y-129000000D01*
X62150000Y-136450000D02*
X62700000Y-135900000D01*
D31*
X59100000Y-134100000D02*
X59000000Y-134000000D01*
D30*
X79400000Y-131425000D02*
X82440688Y-131425000D01*
D33*
X90350000Y-136350000D02*
X90300000Y-136300000D01*
D31*
X59055000Y-123300000D02*
X59055000Y-124745000D01*
D30*
X62700000Y-135900000D02*
X62700000Y-133975000D01*
D31*
X64250000Y-127950000D02*
X65300000Y-129000000D01*
D32*
X132000000Y-117400000D02*
X129550000Y-117400000D01*
X131918750Y-124218750D02*
X129550000Y-124218750D01*
X129550000Y-120718750D02*
X131981250Y-120718750D01*
X132000000Y-124300000D02*
X131918750Y-124218750D01*
X131981250Y-120718750D02*
X132000000Y-120700000D01*
X58500000Y-122400000D02*
X63500000Y-122400000D01*
X59000000Y-127900000D02*
X57000000Y-127900000D01*
X58500000Y-122400000D02*
X57000000Y-123900000D01*
X57000000Y-123900000D02*
X57000000Y-127900000D01*
X54200000Y-127900000D02*
X54000000Y-128100000D01*
X57000000Y-127900000D02*
X54200000Y-127900000D01*
X63500000Y-122400000D02*
X66850000Y-125750000D01*
X66850000Y-125750000D02*
X66850000Y-126600000D01*
X54000000Y-128100000D02*
X51300000Y-128100000D01*
X60500000Y-121800000D02*
X50900000Y-121800000D01*
X54100000Y-130200000D02*
X56500000Y-130200000D01*
X50900000Y-117020000D02*
X50900000Y-121800000D01*
X64200000Y-121800000D02*
X60500000Y-121800000D01*
X67550000Y-125150000D02*
X64200000Y-121800000D01*
X57200000Y-130900000D02*
X59000000Y-130900000D01*
X68300000Y-125150000D02*
X67550000Y-125150000D01*
X49900000Y-122800000D02*
X49900000Y-130700000D01*
X50700000Y-131500000D02*
X52800000Y-131500000D01*
X52800000Y-131500000D02*
X54100000Y-130200000D01*
X56500000Y-130200000D02*
X57200000Y-130900000D01*
X50900000Y-121800000D02*
X49900000Y-122800000D01*
X49900000Y-130700000D02*
X50700000Y-131500000D01*
X49780000Y-115900000D02*
X50900000Y-117020000D01*
D34*
X114900000Y-116258750D02*
X116110000Y-117468750D01*
X67701125Y-123447541D02*
X67678913Y-123447541D01*
X103162746Y-112400000D02*
X113700000Y-112400000D01*
X70905025Y-130794975D02*
X70910050Y-130800000D01*
X113700000Y-112400000D02*
X114900000Y-113600000D01*
X71989950Y-130800000D02*
X73900000Y-132710050D01*
X64025000Y-119793628D02*
X64025000Y-118575000D01*
X75896814Y-132862500D02*
X82700244Y-132862500D01*
X82700244Y-132862500D02*
X103162746Y-112400000D01*
X114900000Y-113600000D02*
X114900000Y-116258750D01*
D35*
X73900000Y-133650000D02*
X73975000Y-133650000D01*
D34*
X67678913Y-123447541D02*
X64025000Y-119793628D01*
X75109314Y-133650000D02*
X75896814Y-132862500D01*
X70910050Y-130800000D02*
X71989950Y-130800000D01*
X73900000Y-132710050D02*
X73900000Y-133650000D01*
X73975000Y-133650000D02*
X75109314Y-133650000D01*
X73100000Y-130900000D02*
X74400000Y-132200000D01*
X115721250Y-112000000D02*
X118650000Y-114928750D01*
X75350000Y-132200000D02*
X77300000Y-132200000D01*
X82534558Y-132462500D02*
X102997061Y-112000000D01*
X66565000Y-120265000D02*
X66565000Y-118575000D01*
X102997061Y-112000000D02*
X115721250Y-112000000D01*
X77562500Y-132462500D02*
X82534558Y-132462500D01*
X74400000Y-132200000D02*
X75350000Y-132200000D01*
X69700000Y-123400000D02*
X66565000Y-120265000D01*
X77300000Y-132200000D02*
X77562500Y-132462500D01*
D35*
X75350000Y-132200000D02*
X75450000Y-132300000D01*
D34*
X73100000Y-132900000D02*
X73100000Y-133650000D01*
X65300000Y-120000003D02*
X68699997Y-123400000D01*
X103328431Y-112800000D02*
X111441250Y-112800000D01*
X73100000Y-133650000D02*
X73100000Y-134625000D01*
X71700000Y-131500000D02*
X73100000Y-132900000D01*
X111441250Y-112800000D02*
X113570000Y-114928750D01*
X82865930Y-133262500D02*
X103328431Y-112800000D01*
X76062500Y-133262500D02*
X82865930Y-133262500D01*
X74500000Y-134825000D02*
X76062500Y-133262500D01*
X73100000Y-134625000D02*
X73300000Y-134825000D01*
X73300000Y-134825000D02*
X74500000Y-134825000D01*
X65300000Y-117300000D02*
X65300000Y-120000003D01*
X66565000Y-116035000D02*
X65300000Y-117300000D01*
X119978750Y-126300000D02*
X118650000Y-127628750D01*
X126450000Y-128650000D02*
X126450000Y-127500000D01*
X136300000Y-126800000D02*
X136300000Y-128100000D01*
X136300000Y-128100000D02*
X135300000Y-129100000D01*
X126900000Y-129100000D02*
X126450000Y-128650000D01*
X124800000Y-127500000D02*
X123600000Y-126300000D01*
X139000000Y-125300000D02*
X138200000Y-126100000D01*
X126450000Y-127500000D02*
X124800000Y-127500000D01*
X135060000Y-117258750D02*
X136301250Y-118500000D01*
X138200000Y-126100000D02*
X137000000Y-126100000D01*
X138200000Y-118500000D02*
X139000000Y-119300000D01*
X137000000Y-126100000D02*
X136300000Y-126800000D01*
X123600000Y-126300000D02*
X119978750Y-126300000D01*
X135300000Y-129100000D02*
X126900000Y-129100000D01*
X136301250Y-118500000D02*
X138200000Y-118500000D01*
X139000000Y-119300000D02*
X139000000Y-125300000D01*
X126450000Y-118750000D02*
X126450000Y-117400000D01*
X134361250Y-119100000D02*
X126800000Y-119100000D01*
X119741250Y-121100000D02*
X118650000Y-120008750D01*
X121900000Y-121100000D02*
X119741250Y-121100000D01*
X123400000Y-118700000D02*
X123400000Y-119600000D01*
X123400000Y-119600000D02*
X121900000Y-121100000D01*
X126800000Y-119100000D02*
X126450000Y-118750000D01*
X135060000Y-119798750D02*
X134361250Y-119100000D01*
X124700000Y-117400000D02*
X123400000Y-118700000D01*
X126450000Y-117400000D02*
X124700000Y-117400000D01*
X133561250Y-122338750D02*
X133300000Y-122600000D01*
X104898750Y-123600000D02*
X103410000Y-125088750D01*
X126950000Y-122600000D02*
X126450000Y-123100000D01*
X124759375Y-124218750D02*
X124140625Y-123600000D01*
X126450000Y-124218750D02*
X124759375Y-124218750D01*
X124140625Y-123600000D02*
X104898750Y-123600000D01*
X135060000Y-122338750D02*
X133561250Y-122338750D01*
X126450000Y-123100000D02*
X126450000Y-124218750D01*
X133300000Y-122600000D02*
X126950000Y-122600000D01*
X126950000Y-122200000D02*
X126450000Y-121700000D01*
X123900000Y-121500000D02*
X109900000Y-121500000D01*
X136300000Y-121700000D02*
X135700000Y-121100000D01*
X135060000Y-127418750D02*
X136300000Y-126178750D01*
X136300000Y-126178750D02*
X136300000Y-121700000D01*
X135700000Y-121100000D02*
X133758750Y-121100000D01*
X109900000Y-121500000D02*
X107200000Y-118800000D01*
X132658750Y-122200000D02*
X126950000Y-122200000D01*
X126450000Y-120718750D02*
X124681250Y-120718750D01*
X133758750Y-121100000D02*
X132658750Y-122200000D01*
X124681250Y-120718750D02*
X123900000Y-121500000D01*
X104741250Y-118800000D02*
X103410000Y-117468750D01*
X107200000Y-118800000D02*
X104741250Y-118800000D01*
X126450000Y-121700000D02*
X126450000Y-120718750D01*
X65500000Y-131700000D02*
X65500000Y-134000000D01*
X83694360Y-135262500D02*
X102556860Y-116400000D01*
X68350000Y-136850000D02*
X75338784Y-136850000D01*
X104881250Y-116400000D02*
X105950000Y-117468750D01*
X66850000Y-131400000D02*
X65800000Y-131400000D01*
X65800000Y-131400000D02*
X65500000Y-131700000D01*
X76926284Y-135262500D02*
X83694360Y-135262500D01*
X75338784Y-136850000D02*
X76926284Y-135262500D01*
X102556860Y-116400000D02*
X104881250Y-116400000D01*
X65500000Y-134000000D02*
X68350000Y-136850000D01*
X83528674Y-134862500D02*
X102391174Y-116000000D01*
X75173098Y-136450000D02*
X76760598Y-134862500D01*
X66850000Y-134784314D02*
X68515686Y-136450000D01*
X107021250Y-116000000D02*
X108490000Y-117468750D01*
X66850000Y-132200000D02*
X66850000Y-134784314D01*
X102391174Y-116000000D02*
X107021250Y-116000000D01*
X76760598Y-134862500D02*
X83528674Y-134862500D01*
X68515686Y-136450000D02*
X75173098Y-136450000D01*
X72050000Y-136050000D02*
X75007412Y-136050000D01*
X83362988Y-134462500D02*
X102896738Y-114928750D01*
X75007412Y-136050000D02*
X76594912Y-134462500D01*
X70700000Y-134700000D02*
X72050000Y-136050000D01*
X102896738Y-114928750D02*
X105950000Y-114928750D01*
X70700000Y-133650000D02*
X70700000Y-134700000D01*
X76594912Y-134462500D02*
X83362988Y-134462500D01*
X72450000Y-135650000D02*
X74841726Y-135650000D01*
X83197302Y-134062500D02*
X103659802Y-113600000D01*
X107161250Y-113600000D02*
X108490000Y-114928750D01*
X74841726Y-135650000D02*
X76429226Y-134062500D01*
X103659802Y-113600000D02*
X107161250Y-113600000D01*
X71500000Y-134700000D02*
X72450000Y-135650000D01*
X71500000Y-133650000D02*
X71500000Y-134700000D01*
X76429226Y-134062500D02*
X83197302Y-134062500D01*
X76263540Y-133662500D02*
X83031616Y-133662500D01*
X72300000Y-133650000D02*
X72300000Y-134700000D01*
X72300000Y-134700000D02*
X72850000Y-135250000D01*
X72850000Y-135250000D02*
X74676040Y-135250000D01*
X109301250Y-113200000D02*
X111030000Y-114928750D01*
X83031616Y-133662500D02*
X103494116Y-113200000D01*
X74676040Y-135250000D02*
X76263540Y-133662500D01*
X103494116Y-113200000D02*
X109301250Y-113200000D01*
X102831371Y-111600000D02*
X117900000Y-111600000D01*
X120200000Y-113900000D02*
X120200000Y-115918750D01*
X87431371Y-127000000D02*
X102831371Y-111600000D01*
X117900000Y-111600000D02*
X120200000Y-113900000D01*
X120200000Y-115918750D02*
X118650000Y-117468750D01*
X75350000Y-127400000D02*
X77100000Y-127400000D01*
X77500000Y-127000000D02*
X87431371Y-127000000D01*
X77100000Y-127400000D02*
X77500000Y-127000000D01*
X87265685Y-126600000D02*
X102665686Y-111200000D01*
X102665686Y-111200000D02*
X118700000Y-111200000D01*
X121190000Y-113690000D02*
X121190000Y-117468750D01*
X75350000Y-126600000D02*
X87265685Y-126600000D01*
X118700000Y-111200000D02*
X121190000Y-113690000D01*
X119322182Y-110800000D02*
X122700000Y-114177818D01*
X88200000Y-125100000D02*
X102500001Y-110800000D01*
X122700000Y-118498750D02*
X121190000Y-120008750D01*
X102500001Y-110800000D02*
X119322182Y-110800000D01*
X122700000Y-114177818D02*
X122700000Y-118498750D01*
X73950000Y-125100000D02*
X88200000Y-125100000D01*
X75100000Y-111600000D02*
X73180000Y-111600000D01*
X79700000Y-119100000D02*
X79700000Y-115944364D01*
X78000000Y-120800000D02*
X79700000Y-119100000D01*
X75700000Y-112200000D02*
X75100000Y-111600000D01*
X72300000Y-125150000D02*
X72300000Y-122765686D01*
X76300000Y-114200000D02*
X75700000Y-113600000D01*
X72300000Y-122765686D02*
X74265686Y-120800000D01*
X75700000Y-113600000D02*
X75700000Y-112200000D01*
X74265686Y-120800000D02*
X78000000Y-120800000D01*
X77955635Y-114200000D02*
X76300000Y-114200000D01*
X73180000Y-111600000D02*
X71880000Y-112900000D01*
X79700000Y-115944364D02*
X77955635Y-114200000D01*
X74100000Y-120400000D02*
X77700000Y-120400000D01*
X71500000Y-123000000D02*
X74100000Y-120400000D01*
X77700000Y-120400000D02*
X79300000Y-118800000D01*
X76120000Y-114600000D02*
X74420000Y-112900000D01*
X79300000Y-116110050D02*
X77789950Y-114600000D01*
X71500000Y-125150000D02*
X71500000Y-123000000D01*
X77789950Y-114600000D02*
X76120000Y-114600000D01*
X79300000Y-118800000D02*
X79300000Y-116110050D01*
D35*
X69900000Y-126200000D02*
X69900000Y-125150000D01*
X70800000Y-127100000D02*
X69900000Y-126200000D01*
X72100000Y-127100000D02*
X70800000Y-127100000D01*
X73200000Y-128600000D02*
X71500000Y-128600000D01*
X69100000Y-126200000D02*
X69100000Y-125150000D01*
X71500000Y-128600000D02*
X69100000Y-126200000D01*
D34*
X106050000Y-136350000D02*
X108490000Y-133910000D01*
X108490000Y-133910000D02*
X108490000Y-132708750D01*
X95150000Y-136350000D02*
X106050000Y-136350000D01*
M02*
