G04 #@! TF.GenerationSoftware,KiCad,Pcbnew,7.0.10-148-g62bb553460*
G04 #@! TF.CreationDate,2024-11-26T22:34:19+03:00*
G04 #@! TF.ProjectId,ZX_BUS_Mouse,5a585f42-5553-45f4-9d6f-7573652e6b69,rev?*
G04 #@! TF.SameCoordinates,Original*
G04 #@! TF.FileFunction,Soldermask,Bot*
G04 #@! TF.FilePolarity,Negative*
%FSLAX46Y46*%
G04 Gerber Fmt 4.6, Leading zero omitted, Abs format (unit mm)*
G04 Created by KiCad (PCBNEW 7.0.10-148-g62bb553460) date 2024-11-26 22:34:19*
%MOMM*%
%LPD*%
G01*
G04 APERTURE LIST*
G04 Aperture macros list*
%AMRoundRect*
0 Rectangle with rounded corners*
0 $1 Rounding radius*
0 $2 $3 $4 $5 $6 $7 $8 $9 X,Y pos of 4 corners*
0 Add a 4 corners polygon primitive as box body*
4,1,4,$2,$3,$4,$5,$6,$7,$8,$9,$2,$3,0*
0 Add four circle primitives for the rounded corners*
1,1,$1+$1,$2,$3*
1,1,$1+$1,$4,$5*
1,1,$1+$1,$6,$7*
1,1,$1+$1,$8,$9*
0 Add four rect primitives between the rounded corners*
20,1,$1+$1,$2,$3,$4,$5,0*
20,1,$1+$1,$4,$5,$6,$7,0*
20,1,$1+$1,$6,$7,$8,$9,0*
20,1,$1+$1,$8,$9,$2,$3,0*%
G04 Aperture macros list end*
%ADD10C,0.150000*%
%ADD11R,1.700000X1.700000*%
%ADD12O,1.700000X1.700000*%
%ADD13R,1.600000X1.600000*%
%ADD14C,1.600000*%
%ADD15O,3.500000X2.000000*%
%ADD16O,2.000000X4.000000*%
%ADD17R,1.422400X1.422400*%
%ADD18C,1.422400*%
%ADD19RoundRect,0.250000X-0.600000X-0.600000X0.600000X-0.600000X0.600000X0.600000X-0.600000X0.600000X0*%
%ADD20C,1.700000*%
%ADD21RoundRect,0.250000X-0.412500X-0.650000X0.412500X-0.650000X0.412500X0.650000X-0.412500X0.650000X0*%
%ADD22R,1.500000X2.000000*%
%ADD23R,3.800000X2.000000*%
%ADD24RoundRect,0.250000X-0.925000X0.875000X-0.925000X-0.875000X0.925000X-0.875000X0.925000X0.875000X0*%
%ADD25RoundRect,0.250000X-0.650000X0.412500X-0.650000X-0.412500X0.650000X-0.412500X0.650000X0.412500X0*%
%ADD26RoundRect,0.250000X0.625000X-0.400000X0.625000X0.400000X-0.625000X0.400000X-0.625000X-0.400000X0*%
%ADD27RoundRect,0.250000X0.650000X-0.412500X0.650000X0.412500X-0.650000X0.412500X-0.650000X-0.412500X0*%
%ADD28RoundRect,0.425000X-0.425000X3.575000X-0.425000X-3.575000X0.425000X-3.575000X0.425000X3.575000X0*%
G04 APERTURE END LIST*
D10*
X132600000Y-150000000D02*
X51500000Y-150000000D01*
X51500000Y-142000000D01*
X132600000Y-142000000D01*
X132600000Y-150000000D01*
G36*
X132600000Y-150000000D02*
G01*
X51500000Y-150000000D01*
X51500000Y-142000000D01*
X132600000Y-142000000D01*
X132600000Y-150000000D01*
G37*
D11*
X76325000Y-123800000D03*
D12*
X78865000Y-123800000D03*
D11*
X57400000Y-113360000D03*
D12*
X57400000Y-115900000D03*
X54860000Y-113360000D03*
X54860000Y-115900000D03*
X52320000Y-113360000D03*
X52320000Y-115900000D03*
X49780000Y-113360000D03*
X49780000Y-115900000D03*
D13*
X51300000Y-128100000D03*
D14*
X51300000Y-125500000D03*
X51300000Y-130200000D03*
X51300000Y-123400000D03*
X54100000Y-130200000D03*
X54100000Y-123400000D03*
D15*
X48450000Y-119950000D03*
D16*
X47650000Y-126800000D03*
D15*
X48450000Y-133650000D03*
D11*
X79500000Y-112900000D03*
D12*
X76960000Y-112900000D03*
X74420000Y-112900000D03*
X71880000Y-112900000D03*
D17*
X113570000Y-117468750D03*
D18*
X111030000Y-114928750D03*
X111030000Y-117468750D03*
X108490000Y-114928750D03*
X108490000Y-117468750D03*
X105950000Y-114928750D03*
X103410000Y-117468750D03*
X105950000Y-117468750D03*
X103410000Y-120008750D03*
X105950000Y-120008750D03*
X103410000Y-122548750D03*
X105950000Y-122548750D03*
X103410000Y-125088750D03*
X105950000Y-125088750D03*
X103410000Y-127628750D03*
X105950000Y-127628750D03*
X103410000Y-130168750D03*
X105950000Y-132708750D03*
X105950000Y-130168750D03*
X108490000Y-132708750D03*
X108490000Y-130168750D03*
X111030000Y-132708750D03*
X111030000Y-130168750D03*
X113570000Y-132708750D03*
X113570000Y-130168750D03*
X116110000Y-132708750D03*
X116110000Y-130168750D03*
X118650000Y-132708750D03*
X121190000Y-130168750D03*
X118650000Y-130168750D03*
X121190000Y-127628750D03*
X118650000Y-127628750D03*
X121190000Y-125088750D03*
X118650000Y-125088750D03*
X121190000Y-122548750D03*
X118650000Y-122548750D03*
X121190000Y-120008750D03*
X118650000Y-120008750D03*
X121190000Y-117468750D03*
X118650000Y-114928750D03*
X118650000Y-117468750D03*
X116110000Y-114928750D03*
X116110000Y-117468750D03*
X113570000Y-114928750D03*
D11*
X64025000Y-118575000D03*
D12*
X64025000Y-116035000D03*
X66565000Y-118575000D03*
X66565000Y-116035000D03*
X69105000Y-118575000D03*
X69105000Y-116035000D03*
D19*
X135060000Y-117258750D03*
D20*
X137600000Y-117258750D03*
X135060000Y-119798750D03*
X137600000Y-119798750D03*
X135060000Y-122338750D03*
X137600000Y-122338750D03*
X135060000Y-124878750D03*
X137600000Y-124878750D03*
X135060000Y-127418750D03*
X137600000Y-127418750D03*
D21*
X109337500Y-135318750D03*
X112462500Y-135318750D03*
D22*
X92800000Y-118768750D03*
X90500000Y-118768750D03*
D23*
X90500000Y-112468750D03*
D22*
X88200000Y-118768750D03*
D24*
X83800000Y-113550000D03*
X83800000Y-118650000D03*
D25*
X100800000Y-127356250D03*
X100800000Y-130481250D03*
D26*
X72600000Y-118800000D03*
X72600000Y-115700000D03*
X76100000Y-118800000D03*
X76100000Y-115700000D03*
D24*
X97300000Y-113468750D03*
X97300000Y-118568750D03*
D27*
X123800000Y-124181250D03*
X123800000Y-121056250D03*
D21*
X112637500Y-112318750D03*
X115762500Y-112318750D03*
D28*
X53975000Y-145034000D03*
X56515000Y-145034000D03*
X59055000Y-145034000D03*
X61595000Y-145034000D03*
X64135000Y-145034000D03*
X66675000Y-145034000D03*
X69215000Y-145034000D03*
X71755000Y-145034000D03*
X74295000Y-145034000D03*
X76835000Y-145034000D03*
X79375000Y-145034000D03*
X81915000Y-145034000D03*
X84455000Y-145034000D03*
X86995000Y-145034000D03*
X89535000Y-145034000D03*
X92075000Y-145034000D03*
X94615000Y-145034000D03*
X97155000Y-145034000D03*
X99695000Y-145034000D03*
X102235000Y-145034000D03*
X104775000Y-145034000D03*
X107315000Y-145034000D03*
X109855000Y-145034000D03*
X112395000Y-145034000D03*
X114935000Y-145034000D03*
X117475000Y-145034000D03*
X120015000Y-145034000D03*
X122555000Y-145034000D03*
X125095000Y-145034000D03*
X127635000Y-145034000D03*
M02*
